<svg width="640" height="515" viewBox="0 0 640 515" fill="none" xmlns="http://www.w3.org/2000/svg">
<path d="M31.332 129.324L-89.322 246.223C-97.4256 254.075 -102 264.876 -102 276.159V399.785C-102 422.806 -83.338 441.468 -60.3174 441.468H12.2867H363.282H674.63H914.243C918.97 441.468 923.663 442.272 928.12 443.845L1062.7 491.36C1067.16 492.934 1071.85 493.738 1076.58 493.738H1270.74C1275.04 493.738 1279.32 493.072 1283.42 491.764L1535.99 411.138C1540.08 409.83 1544.36 409.164 1548.66 409.164H1813.32H1918.32C1932.73 409.164 1946.11 401.723 1953.72 389.487L1990.44 330.424C1994.54 323.818 1996.72 316.196 1996.72 308.418V174.094C1996.72 151.074 1978.06 132.412 1955.04 132.412H1940.34C1931.41 132.412 1922.71 129.544 1915.54 124.23L1775.05 20.2204C1767.23 14.4311 1757.63 11.5596 1747.92 12.1035L1558.51 22.7091C1548.01 23.2972 1538.11 27.8354 1530.82 35.4131L1411.61 159.202C1403.75 167.361 1392.91 171.971 1381.58 171.971H1290.43C1281.84 171.971 1273.46 169.319 1266.44 164.379L1168.54 95.4998C1161.52 90.5592 1153.14 87.9077 1144.56 87.9077H933.553C925.607 87.9077 917.826 90.1789 911.128 94.4536L780.833 177.609C766.694 186.632 748.525 186.302 734.723 176.772L659.692 124.96C652.729 120.152 644.468 117.577 636.007 117.577H391.511H60.3366C49.5098 117.577 39.1078 121.79 31.332 129.324Z" fill="#2A8086"/>
<path d="M31.332 150.585L-89.322 267.485C-97.4256 275.336 -102 286.138 -102 297.421V421.047C-102 444.068 -83.338 462.73 -60.3174 462.73H12.2867H363.282H674.63H914.243C918.97 462.73 923.663 463.534 928.12 465.107L1062.7 512.622C1067.16 514.196 1071.85 515 1076.58 515H1270.74C1275.04 515 1279.32 514.334 1283.42 513.026L1535.99 432.4C1540.08 431.091 1544.36 430.426 1548.66 430.426H1813.32H1919.94C1934.6 430.426 1948.18 422.723 1955.71 410.14L1990.81 351.462C1994.68 344.995 1996.72 337.6 1996.72 330.064V195.356C1996.72 172.336 1978.06 153.674 1955.04 153.674H1940.34C1931.41 153.674 1922.71 150.806 1915.54 145.492L1775.05 41.4824C1767.23 35.693 1757.63 32.8216 1747.92 33.3655L1558.51 43.9711C1548.01 44.5592 1538.11 49.0973 1530.82 56.6751L1411.61 180.464C1403.75 188.623 1392.91 193.233 1381.58 193.233H1290.43C1281.84 193.233 1273.46 190.581 1266.44 185.641L1168.54 116.762C1161.52 111.821 1153.14 109.17 1144.56 109.17H936.291C926.653 109.17 917.312 112.51 909.859 118.622L764.078 238.175C756.626 244.286 747.285 247.627 737.647 247.627H550.83C541.83 247.627 533.072 244.714 525.865 239.324L402.612 147.142C395.405 141.752 386.647 138.839 377.647 138.839H60.3366C49.5098 138.839 39.1078 143.052 31.332 150.585Z" fill="#2A808D" fill-opacity="0.3"/>
<path d="M31.5685 109.399L-88.1937 217.13C-96.9816 225.035 -102 236.299 -102 248.12V357.733C-102 380.754 -83.338 399.416 -60.3174 399.416H4.08192C9.49978 399.416 14.8657 398.359 19.8794 396.306L217.683 315.297C222.697 313.243 228.062 312.187 233.48 312.187H546.254C555.393 312.187 564.279 315.191 571.543 320.735L663.43 390.867C670.695 396.412 679.58 399.416 688.719 399.416H910.019C917.461 399.416 924.766 401.408 931.178 405.185L1059.65 480.875C1066.06 484.652 1073.36 486.644 1080.8 486.644H1268.95C1274.42 486.644 1279.83 485.569 1284.88 483.479L1399.31 436.144L1537.06 400.729C1540.45 399.857 1543.94 399.416 1547.44 399.416H1750.01C1758.44 399.416 1766.67 396.859 1773.62 392.083L1915.92 294.269C1922.87 289.493 1931.1 286.937 1939.53 286.937H1955.04C1978.06 286.937 1996.72 268.275 1996.72 245.254V154.162C1996.72 131.141 1978.06 112.479 1955.04 112.479H1939.53C1931.1 112.479 1922.87 109.923 1915.92 105.147L1774.6 8.01018C1767.05 2.81546 1757.99 0.258036 1748.83 0.734133L1557.72 10.6689C1547.69 11.1903 1538.19 15.3162 1530.96 22.2875L1411.42 137.532C1403.65 145.022 1393.28 149.207 1382.49 149.207H1289.64C1281.54 149.207 1273.62 146.849 1266.84 142.422L1168.14 77.9457C1161.36 73.5181 1153.44 71.1603 1145.34 71.1603H932.577C925.246 71.1603 918.044 73.0938 911.699 76.7659L770.835 158.285C756.891 166.355 739.545 165.666 726.285 156.517L653.188 106.08C646.227 101.278 637.971 98.7062 629.515 98.7062H391.511H59.4448C49.1511 98.7062 39.2215 102.515 31.5685 109.399Z" fill="#2A808D" fill-opacity="0.3"/>
</svg>
