<svg width="1920" height="564" viewBox="0 0 1920 564" fill="none" xmlns="http://www.w3.org/2000/svg">
<path d="M1841.56 272.512L1940.33 316.679C1954.73 323.118 1964 337.42 1964 353.194V462.84C1964 484.931 1946.09 502.84 1924 502.84H1742.4C1735.9 502.84 1729.49 504.424 1723.74 507.457L1625.26 559.383C1619.51 562.415 1613.1 564 1606.6 564H1311.64C1302.8 564 1294.2 561.071 1287.2 555.671L1229.52 511.169C1222.52 505.769 1213.93 502.84 1205.08 502.84H990.046C984.687 502.84 979.383 503.916 974.449 506.006L847.326 559.834C842.392 561.923 837.088 563 831.729 563H655.36C645.739 563 636.44 559.532 629.169 553.233L582.274 512.607C575.003 506.307 565.704 502.84 556.083 502.84H187.527C178.957 502.84 170.614 500.087 163.726 494.988L27.905 394.432C21.0172 389.333 12.6738 386.58 4.10388 386.58H-10C-32.0914 386.58 -50 368.672 -50 346.58V246.26C-50 224.168 -32.0914 206.26 -10 206.26H-1.8999C10.2369 206.26 21.7173 200.749 29.309 191.28L142.991 49.4798C150.582 40.0104 162.063 34.5 174.199 34.5H590.95C611.437 34.5 628.612 49.979 630.735 70.3557L636.708 127.696C638.831 148.073 656.006 163.552 676.493 163.552H1015.38C1022.97 163.552 1030.4 161.392 1036.81 157.324L1208.91 48.0917C1215.32 44.0235 1222.75 41.8633 1230.34 41.8633H1395.5H1707.74C1723.93 41.8633 1738.53 51.6315 1744.71 66.6039L1820.92 251.256C1824.82 260.723 1832.21 268.331 1841.56 272.512Z" fill="#2A8086"/>
<path d="M1864.84 240.027L1963.48 284.618C1977.8 291.092 1987 305.351 1987 321.067V432.32C1987 454.411 1969.09 472.32 1947 472.32H1765.95C1759.39 472.32 1752.93 473.933 1747.14 477.018L1649.01 529.302C1643.22 532.387 1636.76 534 1630.2 534H1336.07C1327.16 534 1318.51 531.025 1311.48 525.547L1254.04 480.773C1247.02 475.295 1238.36 472.32 1229.45 472.32H1015.07C1009.67 472.32 1004.31 473.417 999.339 475.545L872.619 529.766C867.646 531.894 862.293 532.991 856.883 532.991H681.107C671.414 532.991 662.052 529.472 654.759 523.088L608.079 482.223C600.786 475.839 591.424 472.32 581.732 472.32H214.193C205.554 472.32 197.148 469.523 190.231 464.349L54.8208 363.044C47.9039 357.869 39.4976 355.072 30.8591 355.072H17C-5.09143 355.072 -23 337.164 -23 315.072V213.219C-23 191.128 -5.09143 173.219 17 173.219H24.8409C37.0492 173.219 48.5891 167.644 56.1768 158.08L169.582 15.1391C177.17 5.5752 188.709 0 200.918 0H616.567C637.07 0 654.254 15.5031 656.356 35.8983L662.371 94.2504C664.474 114.646 681.657 130.149 702.16 130.149H995.436C1002.91 130.149 1010.24 128.053 1016.59 124.1L1193.35 13.9846C1199.7 10.0313 1207.02 7.93576 1214.5 7.93576H1419.63H1731.17C1747.41 7.93576 1762.03 17.7539 1768.19 32.7829L1844.3 218.731C1848.17 228.194 1855.52 235.815 1864.84 240.027Z" fill="#2A808D" fill-opacity="0.3"/>
<path d="M1787.72 232.471H1779.43L1782.99 267.203L1783.77 294.832H1793.25L1789.3 267.203L1787.72 232.471Z" fill="#216E7A"/>
<path d="M1792.1 299.568H1785.44C1784.97 299.568 1784.61 299.972 1784.65 300.438L1788.12 334.301L1788.88 361.162C1788.9 361.589 1789.25 361.929 1789.67 361.929H1797.47C1797.95 361.929 1798.32 361.503 1798.25 361.028L1794.43 334.301L1792.89 300.321C1792.87 299.9 1792.52 299.568 1792.1 299.568Z" fill="#216E7A"/>
<path d="M1808.23 323.249L1800.63 323.249C1800.17 323.249 1799.8 323.648 1799.85 324.11L1801.48 342.078L1801.48 358.288C1801.48 358.757 1801.89 359.123 1802.36 359.073L1810.45 358.208C1810.9 358.16 1811.22 357.744 1811.15 357.297L1808.65 341.871C1808.64 341.823 1808.64 341.776 1808.64 341.728L1809.02 324.055C1809.03 323.613 1808.67 323.249 1808.23 323.249Z" fill="#216E7A"/>
<path d="M1797.23 366.665H1790.57C1790.1 366.665 1789.74 367.069 1789.78 367.535L1793.24 401.332C1793.25 401.376 1793.25 401.42 1793.24 401.463L1792.51 412.793C1792.48 413.248 1792.84 413.633 1793.3 413.633H1800.97C1801.47 413.633 1801.84 413.181 1801.75 412.694L1799.57 401.454C1799.57 401.417 1799.56 401.378 1799.56 401.34L1798.02 367.419C1798 366.997 1797.65 366.665 1797.23 366.665Z" fill="#216E7A"/>
<path d="M1774.85 381.18C1779.45 378.441 1786.03 369.265 1786.51 362.322C1786.54 361.887 1786.19 361.615 1785.83 361.854C1782.96 363.733 1774.11 373.507 1773.87 380.602C1773.86 381.132 1774.4 381.451 1774.85 381.18Z" fill="#216E7A"/>
<path d="M1771.79 354.966C1773.48 359.864 1780.02 360.676 1784.57 360.476C1784.86 360.463 1785.15 360.277 1785.13 359.983C1785.02 357.67 1777.46 354.472 1772.5 354.076C1772 354.036 1771.63 354.495 1771.79 354.966Z" fill="#216E7A"/>
<path d="M1797.43 313.378C1803.16 312.148 1812.9 305.073 1815.19 298.422C1815.34 298.01 1815.07 297.64 1814.65 297.749C1811.13 298.657 1798.67 305.681 1796.66 312.558C1796.52 313.049 1796.93 313.486 1797.43 313.378Z" fill="#216E7A"/>
<path d="M1876.49 334.537C1873.03 339.268 1862.61 345.282 1855.6 344.675C1855.17 344.637 1854.94 344.245 1855.21 343.903C1857.47 341.057 1868.96 332.532 1876.05 333.497C1876.56 333.565 1876.79 334.125 1876.49 334.537Z" fill="#216E7A"/>
<path d="M1886.46 252.145C1880.3 257.683 1863.72 262.748 1854.76 259.29C1854.35 259.134 1854.21 258.684 1854.54 258.398C1858.05 255.353 1877.41 246.829 1886.3 251.01C1886.76 251.223 1886.84 251.81 1886.46 252.145Z" fill="#216E7A"/>
<path d="M1860.93 234.262C1861.33 240.741 1856.73 253.092 1850.47 257.077C1850.1 257.311 1849.67 257.146 1849.66 256.711C1849.55 252.815 1853.34 237.383 1859.95 233.713C1860.38 233.47 1860.89 233.763 1860.93 234.262Z" fill="#216E7A"/>
<path d="M1872.62 277.392C1869.66 271.144 1859.9 262.321 1853.24 262.275C1852.8 262.272 1852.52 262.652 1852.72 263.04C1854.56 266.651 1865.36 278.849 1872.1 278.345C1872.57 278.31 1872.82 277.819 1872.62 277.392Z" fill="#216E7A"/>
<path d="M1825.42 231.367L1817.15 230.892L1818.7 265.771L1817.91 293.399L1827.36 293.943L1825.01 266.133L1825.42 231.367Z" fill="#216E7A"/>
<path d="M1849.65 209.339L1841.47 208L1839.36 242.85L1835.68 270.243L1845.02 271.774L1845.59 243.871L1849.65 209.339Z" fill="#216E7A"/>
<path d="M1859.07 282.619L1848.38 280.623L1845.5 315.443L1840.59 342.65L1852.8 344.932L1853.64 316.964L1859.07 282.619Z" fill="#216E7A"/>
<path d="M1825.95 298.605L1819.3 298.223C1818.83 298.196 1818.44 298.579 1818.46 299.046L1819.98 333.052L1819.2 359.914C1819.19 360.341 1819.52 360.7 1819.95 360.724L1827.73 361.171C1828.21 361.199 1828.6 360.795 1828.56 360.317L1826.28 333.414L1826.69 299.403C1826.69 298.981 1826.37 298.629 1825.95 298.605Z" fill="#216E7A"/>
<path d="M1843.12 276.262L1836.55 275.186C1836.09 275.11 1835.66 275.45 1835.64 275.917L1833.58 309.895L1830 336.527C1829.94 336.951 1830.23 337.343 1830.65 337.412L1838.35 338.671C1838.82 338.749 1839.25 338.389 1839.26 337.908L1839.81 310.915L1843.78 277.133C1843.83 276.714 1843.54 276.33 1843.12 276.262Z" fill="#216E7A"/>
<path d="M1850.54 349.332L1841.47 347.637C1841 347.549 1840.55 347.893 1840.51 348.367L1837.71 382.291L1832.85 410.966C1832.78 411.409 1833.09 411.814 1833.54 411.855L1843.71 412.767C1844.17 412.809 1844.57 412.454 1844.59 411.998L1845.85 383.813L1851.16 350.201C1851.22 349.79 1850.95 349.408 1850.54 349.332Z" fill="#216E7A"/>
<path d="M1827.23 365.887L1820.57 365.504C1820.1 365.477 1819.72 365.859 1819.74 366.326L1820.87 392.657C1820.87 392.695 1820.87 392.734 1820.87 392.771L1818.98 411.266C1818.94 411.701 1819.26 412.089 1819.69 412.132L1829.8 413.122C1830.31 413.171 1830.73 412.737 1830.66 412.234L1828.05 392.182L1827.98 366.672C1827.97 366.255 1827.65 365.91 1827.23 365.887Z" fill="#216E7A"/>
<path d="M1805.35 276.094C1803.27 282.278 1809.73 289.083 1814.72 293.02C1814.95 293.198 1815.27 293.25 1815.46 293.034C1817.32 290.919 1811.52 280.66 1806.49 275.833C1806.12 275.475 1805.52 275.604 1805.35 276.094Z" fill="#216E7A"/>
<path d="M1867.13 365.119C1861.15 364.702 1857.23 356.609 1855.34 350.808C1855.25 350.537 1855.31 350.213 1855.58 350.123C1858.03 349.303 1865.12 357.994 1867.79 364.148C1868 364.629 1867.66 365.156 1867.13 365.119Z" fill="#216E7A"/>
<path d="M1810.09 362.291L1802.49 362.291C1802.03 362.291 1801.67 362.69 1801.71 363.152L1803.34 381.119L1803.34 412.36C1803.34 412.829 1803.75 413.195 1804.22 413.145L1812.37 412.274C1812.8 412.228 1813.11 411.85 1813.08 411.422L1810.5 380.841L1810.88 363.097C1810.89 362.655 1810.53 362.291 1810.09 362.291Z" fill="#216E7A"/>
<circle cx="81.0658" cy="234.214" r="65.0658" fill="#216E7A"/>
<circle cx="81.0658" cy="189.066" r="65.0658" fill="#216E7A"/>
<rect x="70.4736" y="235.974" width="15.1316" height="118.026" rx="7.56579" fill="#1D6874"/>
</svg>
