<svg width="1920" height="515" viewBox="0 0 1920 515" fill="none" xmlns="http://www.w3.org/2000/svg">
<path d="M121.95 165.296L6.16623 277.477C-1.61027 285.011 -6 295.376 -6 306.204V424.84C-6 446.931 11.9086 464.84 34 464.84H103.673H440.5H739.28H969.221C973.757 464.84 978.26 465.611 982.537 467.121L1111.69 512.718C1115.97 514.228 1120.47 515 1125 515H1311.33C1315.46 515 1319.56 514.361 1323.49 513.106L1565.86 435.734C1569.8 434.479 1573.9 433.84 1578.03 433.84H1832H1932.77C1946.59 433.84 1959.44 426.7 1966.74 414.957L2001.97 358.278C2005.91 351.94 2008 344.625 2008 337.161V208.259C2008 186.168 1990.09 168.259 1968 168.259H1953.9C1945.33 168.259 1936.98 165.507 1930.09 160.408L1795.28 60.5969C1787.78 55.0413 1778.57 52.2857 1769.24 52.8077L1587.48 62.9852C1577.4 63.5495 1567.91 67.9045 1560.9 75.1763L1446.51 193.968C1438.97 201.798 1428.57 206.222 1417.7 206.222H1330.22C1321.98 206.222 1313.94 203.677 1307.2 198.936L1213.25 132.838C1206.52 128.096 1198.48 125.552 1190.24 125.552H990.378C981.129 125.552 972.166 128.757 965.014 134.622L825.117 249.349C817.966 255.214 809.002 258.42 799.753 258.42H620.477C611.84 258.42 603.436 255.625 596.52 250.452L478.243 161.991C471.327 156.819 462.922 154.024 454.286 154.024H149.784C139.394 154.024 129.412 158.066 121.95 165.296Z" fill="#2A8086"/>
<path d="M122.177 126.983L7.24899 230.365C-1.18414 237.951 -6 248.761 -6 260.104V365.292C-6 387.384 11.9086 405.292 34 405.292H95.7997C100.999 405.292 106.148 404.279 110.959 402.308L300.778 324.569C305.589 322.599 310.739 321.585 315.938 321.585H616.086C624.856 321.585 633.383 324.467 640.354 329.788L728.532 397.089C735.503 402.41 744.03 405.292 752.8 405.292H965.167C972.308 405.292 979.319 407.204 985.472 410.829L1108.75 483.463C1114.91 487.088 1121.92 489 1129.06 489H1309.61C1314.86 489 1320.05 487.968 1324.9 485.962L1434.71 440.538L1566.9 406.552C1570.15 405.716 1573.5 405.292 1576.86 405.292H1771.25C1779.34 405.292 1787.24 402.839 1793.9 398.256L1930.46 304.39C1937.13 299.807 1945.03 297.354 1953.12 297.354H1968C1990.09 297.354 2008 279.445 2008 257.354V169.939C2008 147.847 1990.09 129.939 1968 129.939H1953.12C1945.03 129.939 1937.13 127.485 1930.46 122.902L1794.85 29.6868C1787.6 24.7018 1778.91 22.2476 1770.12 22.7045L1586.73 32.2382C1577.1 32.7386 1567.98 36.6979 1561.04 43.3878L1446.33 153.98C1438.87 161.168 1428.92 165.184 1418.57 165.184H1329.46C1321.69 165.184 1314.09 162.921 1307.59 158.672L1212.87 96.7992C1206.36 92.5504 1198.76 90.2877 1190.99 90.2877H989.569C980.815 90.2877 972.302 93.1595 965.337 98.4626L824.794 205.471C817.829 210.774 809.316 213.646 800.562 213.646H619.699C611.544 213.646 603.583 211.153 596.885 206.502L477.878 123.866C471.179 119.214 463.219 116.722 455.063 116.722H148.928C139.05 116.722 129.521 120.377 122.177 126.983Z" fill="#2A808D" fill-opacity="0.3"/>
<path d="M1110.51 192.5C1111.75 174.157 1095.42 146.994 1090.01 146C1090.01 146 1060.01 192.5 1046.01 220.5C1046.45 224.844 1048.27 227.142 1048.01 231.5C1047.74 236 1042.35 238.541 1044.51 242.5C1046.87 246.842 1057.01 244.5 1057.01 244.5C1071.01 242 1072.01 221.5 1073.51 221C1076.01 224.5 1078.65 235.5 1077.51 239.5C1076.51 243 1073.37 244.732 1074.51 248C1075.77 251.637 1079.51 253 1083.01 253C1091.51 253.5 1098.51 247 1103.01 241C1111.51 228 1111.51 205.5 1110.51 192.5Z" fill="#0A5D69"/>
<rect x="982" y="130" width="123" height="92" rx="46" fill="#F3F6F7"/>
<path d="M1029.42 220.5C1038.92 192.5 1032.92 144.5 1010.42 134C1002.09 134.336 989.424 142 989.424 142C989.424 142 960.449 176.921 957.424 204C957.924 214.5 963.925 231.5 961.924 246C959.424 248.39 958.924 249 957.424 251.5C955.424 255.5 960.924 258 964.924 258C969.924 258 976.3 256.159 981.424 251.5C988.053 245.473 987.424 237.5 989.424 230C992.924 234.5 992.424 251.5 989.924 255.5C986.424 261.5 986.924 263.5 989.424 266C996.424 269.833 1009.92 266 1015.92 258C1024.42 244.5 1025.14 236 1029.42 220.5Z" fill="#0A5D69"/>
<circle cx="955.5" cy="132.5" r="13.5" fill="#0A5D69"/>
<circle cx="996.5" cy="126.5" r="13.5" fill="#0A5D69"/>
<rect x="942" y="122" width="79" height="71" rx="35.5" fill="#F3F6F7"/>
<ellipse cx="996.63" cy="151.602" rx="8.85868" ry="11.6027" transform="rotate(-31.8762 996.63 151.602)" fill="#0A5D69"/>
<ellipse rx="8.85868" ry="11.6027" transform="matrix(-0.978754 -0.205037 -0.205037 0.978754 963.05 161.173)" fill="#0A5D69"/>
<path d="M975.5 170C976.233 173.72 983 175.5 984 175.5C984.999 175.5 991.484 169.889 989.5 166C987.5 162.5 975 165.5 975.5 170Z" fill="#0A5D69"/>
<ellipse cx="965.5" cy="159" rx="2.5" ry="3" fill="#F3F6F7"/>
<ellipse cx="992.5" cy="151" rx="2.5" ry="3" fill="#F3F6F7"/>
<path d="M1052.18 31H1041.68L1046.18 75L1047.18 110H1059.18L1054.18 75L1052.18 31Z" fill="#216E7A"/>
<path d="M1057.73 116H1049.29C1048.7 116 1048.24 116.512 1048.3 117.102L1052.68 160L1053.66 194.029C1053.67 194.57 1054.11 195 1054.66 195H1064.53C1065.14 195 1065.61 194.461 1065.52 193.859L1060.68 160L1058.73 116.955C1058.7 116.421 1058.26 116 1057.73 116Z" fill="#216E7A"/>
<path d="M1078.16 146L1068.54 146C1067.95 146 1067.49 146.505 1067.54 147.091L1069.62 169.852L1069.62 190.388C1069.62 190.982 1070.13 191.445 1070.72 191.382L1080.98 190.286C1081.55 190.225 1081.95 189.698 1081.86 189.132L1078.7 169.59C1078.69 169.53 1078.68 169.47 1078.69 169.409L1079.16 147.021C1079.17 146.461 1078.72 146 1078.16 146Z" fill="#216E7A"/>
<path d="M1064.23 201H1055.79C1055.2 201 1054.74 201.512 1054.8 202.102L1059.18 244.917C1059.18 244.972 1059.18 245.028 1059.18 245.083L1058.25 259.436C1058.22 260.012 1058.67 260.5 1059.25 260.5H1068.97C1069.6 260.5 1070.07 259.927 1069.95 259.31L1067.2 245.072C1067.19 245.024 1067.18 244.976 1067.18 244.927L1065.23 201.955C1065.2 201.421 1064.76 201 1064.23 201Z" fill="#216E7A"/>
<path d="M1035.88 219.387C1041.7 215.918 1050.04 204.294 1050.65 195.498C1050.69 194.947 1050.24 194.602 1049.78 194.905C1046.15 197.286 1034.94 209.667 1034.64 218.656C1034.62 219.327 1035.31 219.731 1035.88 219.387Z" fill="#216E7A"/>
<path d="M1032 186.18C1034.14 192.385 1042.42 193.413 1048.19 193.159C1048.56 193.143 1048.92 192.907 1048.9 192.534C1048.75 189.604 1039.19 185.553 1032.9 185.052C1032.27 185.001 1031.8 185.583 1032 186.18Z" fill="#216E7A"/>
<path d="M1064.49 133.495C1071.74 131.936 1084.07 122.974 1086.98 114.549C1087.16 114.027 1086.83 113.558 1086.29 113.696C1081.83 114.846 1066.05 123.745 1063.51 132.456C1063.32 133.078 1063.85 133.631 1064.49 133.495Z" fill="#216E7A"/>
<path d="M1164.64 160.3C1160.26 166.293 1147.06 173.912 1138.17 173.142C1137.62 173.095 1137.33 172.597 1137.68 172.165C1140.54 168.558 1155.09 157.759 1164.09 158.981C1164.73 159.068 1165.02 159.777 1164.64 160.3Z" fill="#216E7A"/>
<path d="M1177.27 55.9242C1169.47 62.9392 1148.46 69.3556 1137.1 64.9758C1136.59 64.7771 1136.41 64.2073 1136.83 63.8453C1141.28 59.9874 1165.8 49.1891 1177.07 54.4863C1177.64 54.7564 1177.74 55.4999 1177.27 55.9242Z" fill="#216E7A"/>
<path d="M1144.92 33.2697C1145.43 41.4772 1139.6 57.124 1131.67 62.1721C1131.2 62.4687 1130.66 62.2597 1130.64 61.7076C1130.51 56.7723 1135.31 37.2227 1143.68 32.5734C1144.23 32.2654 1144.88 32.6369 1144.92 33.2697Z" fill="#216E7A"/>
<path d="M1159.73 87.9071C1155.99 79.992 1143.62 68.814 1135.18 68.7564C1134.63 68.7526 1134.27 69.2339 1134.52 69.7257C1136.86 74.2993 1150.53 89.7528 1159.07 89.1141C1159.67 89.0695 1159.99 88.4473 1159.73 87.9071Z" fill="#216E7A"/>
<path d="M1099.95 29.6021L1089.46 29L1091.43 73.1856L1090.42 108.185L1102.4 108.874L1099.42 73.6444L1099.95 29.6021Z" fill="#216E7A"/>
<path d="M1130.63 1.69669L1120.27 0L1117.6 44.1489L1112.93 78.8505L1124.77 80.7896L1125.5 45.4416L1130.63 1.69669Z" fill="#216E7A"/>
<path d="M1142.57 94.5294L1129.03 92L1125.38 136.111L1119.15 170.577L1134.63 173.468L1135.7 138.038L1142.57 94.5294Z" fill="#216E7A"/>
<path d="M1100.61 114.78L1092.18 114.296C1091.59 114.262 1091.1 114.747 1091.13 115.339L1093.05 158.419L1092.07 192.447C1092.05 192.988 1092.47 193.443 1093.01 193.474L1102.87 194.04C1103.47 194.075 1103.97 193.564 1103.92 192.958L1101.03 158.877L1101.55 115.791C1101.55 115.256 1101.14 114.811 1100.61 114.78Z" fill="#216E7A"/>
<path d="M1122.37 86.4759L1114.04 85.1126C1113.46 85.0168 1112.92 85.4476 1112.88 86.0391L1110.28 129.083L1105.74 162.821C1105.67 163.357 1106.04 163.854 1106.57 163.941L1116.32 165.537C1116.92 165.635 1117.46 165.179 1117.48 164.57L1118.17 130.375L1123.2 87.5793C1123.26 87.0484 1122.9 86.5623 1122.37 86.4759Z" fill="#216E7A"/>
<path d="M1131.77 179.041L1120.28 176.895C1119.68 176.784 1119.11 177.219 1119.06 177.819L1115.5 220.796L1109.36 257.121C1109.26 257.683 1109.66 258.196 1110.23 258.247L1123.11 259.403C1123.69 259.455 1124.21 259.007 1124.23 258.428L1125.82 222.723L1132.54 180.143C1132.63 179.622 1132.29 179.139 1131.77 179.041Z" fill="#216E7A"/>
<path d="M1102.24 200.014L1093.8 199.529C1093.21 199.495 1092.71 199.979 1092.74 200.571L1094.18 233.928C1094.18 233.976 1094.18 234.024 1094.18 234.072L1091.79 257.501C1091.73 258.052 1092.13 258.544 1092.68 258.598L1105.49 259.852C1106.13 259.915 1106.67 259.366 1106.58 258.728L1103.27 233.325L1103.18 201.01C1103.18 200.481 1102.76 200.044 1102.24 200.014Z" fill="#216E7A"/>
<path d="M1074.52 86.262C1071.88 94.0959 1080.07 102.718 1086.39 107.704C1086.68 107.93 1087.09 107.996 1087.33 107.722C1089.68 105.043 1082.34 92.0467 1075.96 85.9316C1075.49 85.4779 1074.73 85.6411 1074.52 86.262Z" fill="#216E7A"/>
<path d="M1152.78 199.042C1145.2 198.513 1140.24 188.26 1137.84 180.912C1137.73 180.569 1137.81 180.159 1138.15 180.044C1141.25 179.006 1150.23 190.016 1153.62 197.812C1153.88 198.421 1153.45 199.088 1152.78 199.042Z" fill="#216E7A"/>
<path d="M1080.52 195.459L1070.9 195.459C1070.31 195.459 1069.85 195.964 1069.9 196.549L1071.98 219.311L1071.98 258.887C1071.98 259.482 1072.49 259.945 1073.08 259.882L1083.41 258.778C1083.95 258.72 1084.35 258.241 1084.3 257.7L1081.04 218.959L1081.52 196.48C1081.53 195.919 1081.08 195.459 1080.52 195.459Z" fill="#216E7A"/>
<circle cx="1757.07" cy="266.214" r="65.0658" fill="#216E7A"/>
<circle cx="1757.07" cy="221.066" r="65.0658" fill="#216E7A"/>
<rect x="1746.47" y="267.974" width="15.1316" height="118.026" rx="7.56579" fill="#1D6874"/>
<circle cx="449.066" cy="150.214" r="65.0658" fill="#216E7A"/>
<circle cx="449.066" cy="105.066" r="65.0658" fill="#216E7A"/>
<rect x="438.474" y="151.974" width="15.1316" height="118.026" rx="7.56579" fill="#1D6874"/>
</svg>
