<svg width="640" height="493" viewBox="0 0 640 493" fill="none" xmlns="http://www.w3.org/2000/svg">
<path d="M-94.0502 143.296L-209.834 255.477C-217.61 263.011 -222 273.376 -222 284.204V402.84C-222 424.931 -204.091 442.84 -182 442.84H-112.327H224.5H523.28H753.221C757.757 442.84 762.26 443.611 766.537 445.121L895.688 490.718C899.966 492.228 904.469 493 909.005 493H1095.33C1099.46 493 1103.56 492.361 1107.49 491.106L1349.86 413.734C1353.8 412.479 1357.9 411.84 1362.03 411.84H1616H1716.77C1730.59 411.84 1743.44 404.7 1750.74 392.957L1785.97 336.278C1789.91 329.94 1792 322.625 1792 315.161V186.259C1792 164.168 1774.09 146.259 1752 146.259H1737.9C1729.33 146.259 1720.98 143.507 1714.09 138.408L1579.28 38.5969C1571.78 33.0413 1562.57 30.2857 1553.24 30.8077L1371.48 40.9852C1361.4 41.5495 1351.91 45.9045 1344.9 53.1763L1230.51 171.968C1222.97 179.798 1212.57 184.222 1201.7 184.222H1114.22C1105.98 184.222 1097.94 181.677 1091.2 176.936L997.254 110.838C990.515 106.096 982.476 103.552 974.237 103.552H774.378C765.129 103.552 756.166 106.757 749.014 112.622L609.117 227.349C601.966 233.214 593.002 236.42 583.753 236.42H404.477C395.84 236.42 387.436 233.625 380.52 228.452L262.243 139.991C255.327 134.819 246.922 132.024 238.286 132.024H-66.2164C-76.6062 132.024 -86.5883 136.066 -94.0502 143.296Z" fill="#2A8086"/>
<path d="M-93.6591 121.121L-208.066 219.407C-216.911 227.006 -222 238.086 -222 249.748V347.057C-222 369.148 -204.091 387.057 -182 387.057H-119.871C-114.885 387.057 -109.944 386.125 -105.301 384.309L85.0384 309.861C89.6814 308.045 94.6231 307.113 99.6087 307.113H400.575C409.044 307.113 417.294 309.801 424.137 314.789L512.749 379.381C519.592 384.369 527.842 387.057 536.311 387.057H749.593C756.465 387.057 763.22 388.827 769.208 392.196L893.017 461.86C899.005 465.23 905.761 467 912.632 467H1093.94C1098.97 467 1103.96 466.051 1108.64 464.202L1218.71 420.717L1351.1 388.21C1354.22 387.444 1357.42 387.057 1360.64 387.057H1555.71C1563.51 387.057 1571.14 384.776 1577.66 380.495L1714.71 290.533C1721.23 286.252 1728.86 283.972 1736.66 283.972H1752C1774.09 283.972 1792 266.063 1792 243.972V164.085C1792 141.994 1774.09 124.085 1752 124.085H1736.66C1728.86 124.085 1721.23 121.804 1714.71 117.524L1578.57 28.1589C1571.49 23.5069 1563.11 21.2265 1554.64 21.6469L1370.26 30.801C1360.92 31.2648 1352.03 34.9889 1345.15 41.3254L1230.19 147.172C1222.81 153.971 1213.14 157.745 1203.1 157.745H1113.01C1105.53 157.745 1098.19 155.645 1091.84 151.683L996.616 92.2793C990.265 88.3174 982.93 86.217 975.445 86.217H773.08C764.627 86.217 756.392 88.8946 749.555 93.8657L608.576 196.38C601.739 201.351 593.504 204.028 585.051 204.028H403.231C395.367 204.028 387.678 201.71 381.124 197.364L261.638 118.126C255.084 113.78 247.395 111.462 239.531 111.462H-67.5934C-77.1573 111.462 -86.4046 114.889 -93.6591 121.121Z" fill="#2A808D" fill-opacity="0.3"/>
<path d="M364.956 277.75C365.825 264.91 354.396 245.896 350.606 245.2C350.606 245.2 329.606 277.75 319.806 297.35C320.114 300.391 321.39 301.999 321.206 305.05C321.016 308.2 317.247 309.978 318.756 312.75C320.411 315.789 327.506 314.15 327.506 314.15C337.306 312.4 338.006 298.05 339.056 297.7C340.806 300.15 342.656 307.85 341.856 310.65C341.156 313.1 338.96 314.312 339.756 316.6C340.642 319.146 343.256 320.1 345.706 320.1C351.656 320.45 356.556 315.9 359.706 311.7C365.656 302.6 365.656 286.85 364.956 277.75Z" fill="#0A5D69"/>
<rect x="275" y="234" width="86.1" height="64.4" rx="32.2" fill="#F3F6F7"/>
<path d="M308.197 297.35C314.847 277.75 310.647 244.15 294.897 236.8C289.063 237.035 280.197 242.4 280.197 242.4C280.197 242.4 259.914 266.845 257.797 285.8C258.147 293.15 262.347 305.05 260.947 315.2C259.197 316.873 258.847 317.3 257.797 319.05C256.397 321.85 260.247 323.6 263.047 323.6C266.547 323.6 271.01 322.311 274.597 319.05C279.237 314.831 278.797 309.25 280.197 304C282.647 307.15 282.297 319.05 280.547 321.85C278.097 326.05 278.447 327.45 280.197 329.2C285.097 331.883 294.547 329.2 298.747 323.6C304.697 314.15 305.198 308.2 308.197 297.35Z" fill="#0A5D69"/>
<circle cx="256.45" cy="235.75" r="9.45" fill="#0A5D69"/>
<circle cx="285.149" cy="231.55" r="9.45" fill="#0A5D69"/>
<rect x="247" y="228.4" width="55.3" height="49.7" rx="24.85" fill="#F3F6F7"/>
<ellipse cx="285.241" cy="249.122" rx="6.20107" ry="8.12189" transform="rotate(-31.8762 285.241 249.122)" fill="#0A5D69"/>
<ellipse rx="6.20107" ry="8.12189" transform="matrix(-0.978754 -0.205037 -0.205037 0.978754 261.734 255.821)" fill="#0A5D69"/>
<path d="M270.45 262C270.963 264.604 275.7 265.85 276.4 265.85C277.099 265.85 281.639 261.922 280.25 259.2C278.85 256.75 270.1 258.85 270.45 262Z" fill="#0A5D69"/>
<ellipse cx="263.449" cy="254.3" rx="1.75" ry="2.1" fill="#F3F6F7"/>
<ellipse cx="282.35" cy="248.7" rx="1.75" ry="2.1" fill="#F3F6F7"/>
<path d="M324.129 164.7H316.779L319.929 195.5L320.629 220H329.029L325.529 195.5L324.129 164.7Z" fill="#216E7A"/>
<path d="M328.009 224.2H322.103C321.689 224.2 321.365 224.559 321.407 224.971L324.478 255L325.159 278.82C325.17 279.199 325.48 279.5 325.858 279.5H332.771C333.197 279.5 333.524 279.123 333.464 278.701L330.078 255L328.708 224.868C328.692 224.494 328.383 224.2 328.009 224.2Z" fill="#216E7A"/>
<path d="M342.314 245.2L335.577 245.2C335.166 245.2 334.843 245.554 334.88 245.963L336.332 261.897L336.332 276.271C336.332 276.687 336.692 277.011 337.106 276.967L344.284 276.2C344.683 276.158 344.965 275.789 344.901 275.392L342.689 261.713C342.683 261.671 342.68 261.629 342.68 261.586L343.014 245.915C343.022 245.523 342.706 245.2 342.314 245.2Z" fill="#216E7A"/>
<path d="M332.56 283.7H326.654C326.239 283.7 325.916 284.059 325.958 284.471L329.023 314.442C329.027 314.481 329.028 314.519 329.025 314.558L328.377 324.605C328.351 325.008 328.671 325.35 329.076 325.35H335.88C336.32 325.35 336.651 324.949 336.568 324.517L334.639 314.55C334.632 314.517 334.628 314.483 334.627 314.449L333.259 284.368C333.242 283.994 332.934 283.7 332.56 283.7Z" fill="#216E7A"/>
<path d="M312.717 296.571C316.79 294.143 322.627 286.006 323.053 279.849C323.079 279.463 322.769 279.221 322.446 279.433C319.905 281.1 312.057 289.767 311.848 296.059C311.832 296.529 312.313 296.812 312.717 296.571Z" fill="#216E7A"/>
<path d="M310.001 273.326C311.5 277.669 317.295 278.389 321.332 278.212C321.593 278.2 321.846 278.035 321.833 277.774C321.728 275.723 315.032 272.887 310.631 272.536C310.19 272.501 309.857 272.908 310.001 273.326Z" fill="#216E7A"/>
<path d="M332.74 236.447C337.819 235.356 346.451 229.082 348.489 223.184C348.615 222.819 348.38 222.49 348.006 222.587C344.884 223.392 333.834 229.621 332.054 235.719C331.927 236.155 332.297 236.542 332.74 236.447Z" fill="#216E7A"/>
<path d="M402.845 255.21C399.782 259.405 390.539 264.738 384.322 264.2C383.937 264.166 383.733 263.818 383.973 263.515C385.979 260.991 396.165 253.431 402.46 254.287C402.909 254.348 403.112 254.844 402.845 255.21Z" fill="#216E7A"/>
<path d="M411.69 182.147C406.227 187.057 391.524 191.549 383.572 188.483C383.211 188.344 383.09 187.945 383.382 187.692C386.493 184.991 403.661 177.432 411.548 181.14C411.95 181.329 412.02 181.85 411.69 182.147Z" fill="#216E7A"/>
<path d="M389.043 166.289C389.402 172.034 385.318 182.987 379.769 186.52C379.443 186.728 379.06 186.582 379.05 186.195C378.954 182.741 382.318 169.056 388.173 165.801C388.561 165.586 389.015 165.846 389.043 166.289Z" fill="#216E7A"/>
<path d="M399.413 204.535C396.792 198.995 388.137 191.17 382.226 191.13C381.84 191.127 381.592 191.464 381.767 191.808C383.403 195.01 392.972 205.827 398.951 205.38C399.368 205.349 399.592 204.913 399.413 204.535Z" fill="#216E7A"/>
<path d="M357.563 163.722L350.225 163.3L351.603 194.23L350.897 218.73L359.283 219.212L357.194 194.551L357.563 163.722Z" fill="#216E7A"/>
<path d="M379.042 144.188L371.789 143L369.921 173.904L366.653 198.195L374.942 199.553L375.447 174.809L379.042 144.188Z" fill="#216E7A"/>
<path d="M387.397 209.171L377.92 207.4L375.366 238.277L371.006 262.404L381.837 264.428L382.587 239.626L387.397 209.171Z" fill="#216E7A"/>
<path d="M358.024 223.346L352.127 223.007C351.713 222.984 351.37 223.323 351.388 223.737L352.732 253.893L352.046 277.713C352.035 278.091 352.327 278.41 352.705 278.432L359.606 278.828C360.032 278.853 360.38 278.495 360.344 278.07L358.323 254.214L358.683 224.053C358.688 223.679 358.397 223.368 358.024 223.346Z" fill="#216E7A"/>
<path d="M373.257 203.533L367.429 202.579C367.02 202.512 366.642 202.813 366.617 203.227L364.796 233.358L361.618 256.975C361.568 257.35 361.825 257.697 362.199 257.759L369.021 258.876C369.441 258.945 369.825 258.625 369.834 258.199L370.322 234.263L373.839 204.305C373.883 203.934 373.627 203.593 373.257 203.533Z" fill="#216E7A"/>
<path d="M379.835 268.329L371.792 266.827C371.376 266.749 370.975 267.053 370.94 267.474L368.452 297.557L364.15 322.985C364.083 323.378 364.362 323.737 364.761 323.773L373.774 324.582C374.181 324.619 374.543 324.305 374.561 323.9L375.673 298.906L380.381 269.101C380.438 268.735 380.199 268.397 379.835 268.329Z" fill="#216E7A"/>
<path d="M359.164 283.01L353.257 282.67C352.844 282.647 352.5 282.985 352.518 283.399L353.526 306.749C353.527 306.783 353.526 306.817 353.523 306.851L351.85 323.251C351.81 323.636 352.092 323.981 352.478 324.018L361.445 324.897C361.894 324.94 362.266 324.556 362.208 324.109L359.887 306.327L359.824 283.707C359.823 283.336 359.534 283.031 359.164 283.01Z" fill="#216E7A"/>
<path d="M339.761 203.384C337.914 208.867 343.646 214.902 348.072 218.393C348.272 218.551 348.561 218.597 348.729 218.405C350.378 216.53 345.235 207.433 340.774 203.152C340.443 202.835 339.907 202.949 339.761 203.384Z" fill="#216E7A"/>
<path d="M394.551 282.329C389.241 281.959 385.768 274.782 384.092 269.639C384.014 269.398 384.069 269.111 384.308 269.031C386.475 268.304 392.763 276.011 395.132 281.468C395.317 281.894 395.014 282.361 394.551 282.329Z" fill="#216E7A"/>
<path d="M343.964 279.821L337.228 279.821C336.816 279.821 336.493 280.175 336.531 280.585L337.982 296.518L337.982 324.221C337.982 324.637 338.343 324.962 338.756 324.917L345.989 324.145C346.367 324.104 346.644 323.769 346.612 323.39L344.329 296.271L344.664 280.536C344.673 280.144 344.357 279.821 343.964 279.821Z" fill="#216E7A"/>
<circle cx="613.414" cy="209.233" r="44.4145" fill="#216E7A"/>
<circle cx="613.414" cy="178.414" r="44.4145" fill="#216E7A"/>
<rect x="606.186" y="210.434" width="10.3289" height="80.5658" rx="5.16447" fill="#1D6874"/>
<circle cx="25.0658" cy="256.214" r="65.0658" fill="#216E7A"/>
<circle cx="25.0658" cy="211.066" r="65.0658" fill="#216E7A"/>
<rect x="14.4746" y="257.974" width="15.1316" height="118.026" rx="7.56579" fill="#1D6874"/>
</svg>
