<svg width="1200" height="346" viewBox="0 0 1200 346" fill="none" xmlns="http://www.w3.org/2000/svg">
<g clip-path="url(#clip0)">
<path d="M-190.05 105.296L-305.834 217.477C-313.61 225.011 -318 235.376 -318 246.204V364.84C-318 386.931 -300.091 404.84 -278 404.84H-208.327H128.5H427.28H657.221C661.757 404.84 666.26 405.611 670.537 407.121L799.688 452.718C803.966 454.228 808.469 455 813.005 455H999.327C1003.46 455 1007.56 454.361 1011.49 453.106L1253.86 375.734C1257.8 374.479 1261.9 373.84 1266.03 373.84H1520H1620.77C1634.59 373.84 1647.44 366.7 1654.74 354.957L1689.97 298.278C1693.91 291.94 1696 284.625 1696 277.161V148.259C1696 126.168 1678.09 108.259 1656 108.259H1641.9C1633.33 108.259 1624.98 105.507 1618.09 100.408L1483.28 0.59694C1475.78 -4.9587 1466.57 -7.71426 1457.24 -7.19228L1275.48 2.98515C1265.4 3.54955 1255.91 7.90448 1248.9 15.1763L1134.51 133.968C1126.97 141.798 1116.57 146.222 1105.7 146.222H1018.22C1009.98 146.222 1001.94 143.677 995.202 138.936L901.254 72.8375C894.515 68.0964 886.476 65.5519 878.237 65.5519H678.378C669.129 65.5519 660.166 68.7573 653.014 74.6225L513.117 189.349C505.966 195.214 497.002 198.42 487.753 198.42H308.477C299.84 198.42 291.436 195.625 284.52 190.452L166.243 101.991C159.327 96.8188 150.922 94.0236 142.286 94.0236H-162.216C-172.606 94.0236 -182.588 98.0662 -190.05 105.296Z" fill="#2A8086"/>
<path d="M-189.823 66.9831L-304.751 170.365C-313.184 177.951 -318 188.761 -318 200.104V305.292C-318 327.384 -300.091 345.292 -278 345.292H-216.2C-211.001 345.292 -205.852 344.279 -201.041 342.308L-11.2218 264.569C-6.41052 262.599 -1.26123 261.585 3.93793 261.585H304.086C312.856 261.585 321.383 264.467 328.354 269.788L416.532 337.089C423.503 342.41 432.03 345.292 440.8 345.292H653.167C660.308 345.292 667.319 347.204 673.472 350.829L796.754 423.463C802.906 427.088 809.917 429 817.058 429H997.61C1002.86 429 1008.05 427.968 1012.9 425.962L1122.71 380.538L1254.9 346.552C1258.15 345.716 1261.5 345.292 1264.86 345.292H1459.25C1467.34 345.292 1475.24 342.839 1481.9 338.256L1618.46 244.39C1625.13 239.807 1633.03 237.354 1641.12 237.354H1656C1678.09 237.354 1696 219.445 1696 197.354V109.939C1696 87.8473 1678.09 69.9387 1656 69.9387H1641.12C1633.03 69.9387 1625.13 67.4853 1618.46 62.9024L1482.85 -30.3132C1475.6 -35.2982 1466.91 -37.7524 1458.12 -37.2955L1274.73 -27.7618C1265.1 -27.2614 1255.98 -23.3021 1249.04 -16.6122L1134.33 93.9804C1126.87 101.168 1116.92 105.184 1106.57 105.184H1017.46C1009.69 105.184 1002.09 102.921 995.589 98.6725L900.867 36.7992C894.362 32.5504 886.761 30.2877 878.992 30.2877H677.569C668.815 30.2877 660.302 33.1595 653.337 38.4626L512.794 145.471C505.829 150.774 497.316 153.646 488.562 153.646H307.699C299.544 153.646 291.583 151.153 284.885 146.502L165.878 63.8659C159.179 59.2145 151.219 56.7217 143.063 56.7217H-163.072C-172.95 56.7217 -182.479 60.3769 -189.823 66.9831Z" fill="#2A808D" fill-opacity="0.3"/>
<path d="M758.508 196.5C759.749 178.157 743.422 150.994 738.008 150C738.008 150 708.008 196.5 694.008 224.5C694.448 228.844 696.27 231.142 696.008 235.5C695.737 240 690.353 242.541 692.508 246.5C694.872 250.842 705.008 248.5 705.008 248.5C719.008 246 720.008 225.5 721.508 225C724.008 228.5 726.651 239.5 725.508 243.5C724.508 247 721.371 248.732 722.508 252C723.773 255.637 727.508 257 731.008 257C739.508 257.5 746.508 251 751.008 245C759.508 232 759.508 209.5 758.508 196.5Z" fill="#0A5D69"/>
<rect x="630" y="134" width="123" height="92" rx="46" fill="#F3F6F7"/>
<path d="M677.424 224.5C686.924 196.5 680.924 148.5 658.424 138C650.089 138.336 637.424 146 637.424 146C637.424 146 608.449 180.921 605.424 208C605.924 218.5 611.925 235.5 609.924 250C607.424 252.39 606.924 253 605.424 255.5C603.424 259.5 608.924 262 612.924 262C617.924 262 624.3 260.159 629.424 255.5C636.053 249.473 635.424 241.5 637.424 234C640.924 238.5 640.424 255.5 637.924 259.5C634.424 265.5 634.924 267.5 637.424 270C644.424 273.833 657.924 270 663.924 262C672.424 248.5 673.14 240 677.424 224.5Z" fill="#0A5D69"/>
<circle cx="603.5" cy="136.5" r="13.5" fill="#0A5D69"/>
<circle cx="644.5" cy="130.5" r="13.5" fill="#0A5D69"/>
<rect x="590" y="126" width="79" height="71" rx="35.5" fill="#F3F6F7"/>
<ellipse cx="644.63" cy="155.602" rx="8.85868" ry="11.6027" transform="rotate(-31.8762 644.63 155.602)" fill="#0A5D69"/>
<ellipse rx="8.85868" ry="11.6027" transform="matrix(-0.978754 -0.205037 -0.205037 0.978754 611.05 165.173)" fill="#0A5D69"/>
<path d="M623.5 174C624.233 177.72 631 179.5 632 179.5C632.999 179.5 639.484 173.889 637.5 170C635.5 166.5 623 169.5 623.5 174Z" fill="#0A5D69"/>
<ellipse cx="613.5" cy="163" rx="2.5" ry="3" fill="#F3F6F7"/>
<ellipse cx="640.5" cy="155" rx="2.5" ry="3" fill="#F3F6F7"/>
<path d="M700.184 35H689.684L694.184 79L695.184 114H707.184L702.184 79L700.184 35Z" fill="#216E7A"/>
<path d="M705.728 120H697.291C696.699 120 696.236 120.512 696.296 121.102L700.684 164L701.656 198.029C701.671 198.57 702.114 199 702.655 199H712.531C713.139 199 713.607 198.461 713.521 197.859L708.684 164L706.727 120.955C706.703 120.421 706.263 120 705.728 120Z" fill="#216E7A"/>
<path d="M726.162 150L716.538 150C715.95 150 715.489 150.505 715.542 151.091L717.616 173.852L717.616 194.387C717.616 194.982 718.131 195.445 718.722 195.382L728.977 194.286C729.547 194.225 729.949 193.698 729.858 193.132L726.698 173.59C726.688 173.53 726.684 173.47 726.686 173.409L727.162 151.021C727.174 150.461 726.723 150 726.162 150Z" fill="#216E7A"/>
<path d="M712.228 205H703.791C703.199 205 702.736 205.512 702.796 206.102L707.175 248.917C707.181 248.972 707.182 249.028 707.178 249.083L706.252 263.436C706.215 264.012 706.673 264.5 707.25 264.5H716.971C717.6 264.5 718.073 263.927 717.953 263.31L715.197 249.072C715.188 249.024 715.182 248.976 715.18 248.927L713.227 205.955C713.203 205.421 712.763 205 712.228 205Z" fill="#216E7A"/>
<path d="M683.883 223.387C689.702 219.918 698.041 208.294 698.648 199.498C698.686 198.947 698.243 198.602 697.781 198.905C694.152 201.286 682.94 213.667 682.642 222.656C682.62 223.327 683.307 223.731 683.883 223.387Z" fill="#216E7A"/>
<path d="M680.002 190.18C682.142 196.385 690.422 197.413 696.189 197.159C696.562 197.143 696.924 196.907 696.905 196.534C696.755 193.604 687.188 189.553 680.902 189.052C680.272 189.001 679.796 189.583 680.002 190.18Z" fill="#216E7A"/>
<path d="M712.486 137.495C719.741 135.936 732.073 126.974 734.984 118.549C735.164 118.027 734.828 117.558 734.294 117.696C729.834 118.846 714.048 127.745 711.506 136.456C711.324 137.078 711.853 137.631 712.486 137.495Z" fill="#216E7A"/>
<path d="M812.635 164.3C808.259 170.293 795.055 177.912 786.174 177.142C785.624 177.095 785.332 176.597 785.676 176.165C788.541 172.558 803.093 161.759 812.085 162.981C812.727 163.068 813.017 163.777 812.635 164.3Z" fill="#216E7A"/>
<path d="M825.271 59.9241C817.468 66.939 796.463 73.3555 785.103 68.9756C784.587 68.777 784.414 68.2072 784.831 67.8451C789.276 63.9873 813.802 53.189 825.068 58.4862C825.643 58.7562 825.743 59.4998 825.271 59.9241Z" fill="#216E7A"/>
<path d="M792.919 37.2697C793.432 45.4772 787.599 61.124 779.671 66.1721C779.205 66.4687 778.659 66.2597 778.643 65.7076C778.507 60.7723 783.312 41.2227 791.677 36.5734C792.231 36.2654 792.88 36.6369 792.919 37.2697Z" fill="#216E7A"/>
<path d="M807.733 91.9074C803.988 83.9922 791.625 72.8142 783.18 72.7566C782.628 72.7528 782.273 73.2341 782.525 73.726C784.861 78.2996 798.531 93.7531 807.073 93.1144C807.669 93.0698 807.989 92.4476 807.733 91.9074Z" fill="#216E7A"/>
<path d="M747.945 33.6021L737.462 33L739.431 77.1856L738.423 112.185L750.403 112.874L747.418 77.6444L747.945 33.6021Z" fill="#216E7A"/>
<path d="M778.632 5.69669L768.27 4L765.6 48.1489L760.932 82.8505L772.774 84.7896L773.495 49.4416L778.632 5.69669Z" fill="#216E7A"/>
<path d="M790.567 98.5294L777.028 96L773.38 140.111L767.152 174.577L782.625 177.468L783.695 142.038L790.567 98.5294Z" fill="#216E7A"/>
<path d="M748.606 118.78L740.183 118.296C739.591 118.262 739.1 118.747 739.126 119.339L741.047 162.419L740.066 196.447C740.05 196.988 740.468 197.443 741.008 197.474L750.867 198.04C751.475 198.075 751.972 197.564 751.921 196.958L749.033 162.877L749.548 119.791C749.555 119.256 749.14 118.811 748.606 118.78Z" fill="#216E7A"/>
<path d="M770.368 90.4756L762.042 89.1123C761.457 89.0166 760.918 89.4474 760.882 90.0388L758.28 133.082L753.741 166.821C753.669 167.357 754.036 167.853 754.57 167.941L764.316 169.537C764.916 169.635 765.465 169.179 765.477 168.57L766.175 134.375L771.2 91.5791C771.262 91.0481 770.896 90.562 770.368 90.4756Z" fill="#216E7A"/>
<path d="M779.765 183.042L768.276 180.895C767.681 180.784 767.108 181.219 767.059 181.819L763.504 224.796L757.358 261.121C757.263 261.683 757.66 262.196 758.231 262.247L771.106 263.403C771.688 263.455 772.206 263.007 772.231 262.428L773.819 226.723L780.545 184.144C780.627 183.622 780.285 183.139 779.765 183.042Z" fill="#216E7A"/>
<path d="M750.235 204.014L741.797 203.529C741.206 203.495 740.715 203.979 740.74 204.571L742.18 237.928C742.183 237.976 742.181 238.024 742.176 238.072L739.786 261.501C739.729 262.052 740.132 262.544 740.683 262.598L753.494 263.852C754.134 263.915 754.666 263.366 754.583 262.728L751.268 237.325L751.178 205.009C751.176 204.48 750.763 204.044 750.235 204.014Z" fill="#216E7A"/>
<path d="M722.516 90.2623C719.877 98.0961 728.066 106.718 734.389 111.704C734.675 111.93 735.087 111.996 735.328 111.722C737.683 109.043 730.336 96.0469 723.963 89.9318C723.491 89.4782 722.725 89.6413 722.516 90.2623Z" fill="#216E7A"/>
<path d="M800.785 203.041C793.2 202.513 788.237 192.26 785.844 184.912C785.732 184.569 785.81 184.158 786.152 184.044C789.248 183.005 798.231 194.015 801.615 201.812C801.88 202.421 801.447 203.088 800.785 203.041Z" fill="#216E7A"/>
<path d="M728.521 199.459L718.897 199.459C718.309 199.459 717.848 199.964 717.902 200.549L719.975 223.311L719.975 262.887C719.975 263.482 720.491 263.945 721.082 263.882L731.413 262.778C731.954 262.72 732.349 262.241 732.303 261.7L729.043 222.959L729.521 200.48C729.533 199.919 729.082 199.459 728.521 199.459Z" fill="#216E7A"/>
<circle cx="1036.07" cy="110.214" r="65.0658" fill="#216E7A"/>
<circle cx="1036.07" cy="65.0658" r="65.0658" fill="#216E7A"/>
<rect x="1025.47" y="111.974" width="15.1316" height="118.026" rx="7.56579" fill="#1D6874"/>
<circle cx="205.066" cy="160.214" r="65.0658" fill="#216E7A"/>
<circle cx="205.066" cy="115.066" r="65.0658" fill="#216E7A"/>
<rect x="194.474" y="161.974" width="15.1316" height="118.026" rx="7.56579" fill="#1D6874"/>
</g>
<defs>
<clipPath id="clip0">
<rect width="1200" height="346" fill="white"/>
</clipPath>
</defs>
</svg>
