<svg width="320" height="289" viewBox="0 0 320 289" fill="none" xmlns="http://www.w3.org/2000/svg">
<rect x="-163" y="9" width="640" height="280" fill="#2A8086"/>
<path d="M201.956 143.75C202.825 130.91 191.396 111.896 187.606 111.2C187.606 111.2 166.606 143.75 156.806 163.35C157.114 166.391 158.39 167.999 158.206 171.05C158.016 174.2 154.247 175.978 155.756 178.75C157.411 181.789 164.506 180.15 164.506 180.15C174.306 178.4 175.006 164.05 176.056 163.7C177.806 166.15 179.656 173.85 178.856 176.65C178.156 179.1 175.96 180.312 176.756 182.6C177.642 185.146 180.256 186.1 182.706 186.1C188.656 186.45 193.556 181.9 196.706 177.7C202.656 168.6 202.656 152.85 201.956 143.75Z" fill="#0A5D69"/>
<rect x="112" y="100" width="86.1" height="64.4" rx="32.2" fill="#F3F6F7"/>
<path d="M145.197 163.35C151.847 143.75 147.647 110.15 131.897 102.8C126.063 103.035 117.197 108.4 117.197 108.4C117.197 108.4 96.9141 132.845 94.7971 151.8C95.1471 159.15 99.3474 171.05 97.9471 181.2C96.1971 182.873 95.8471 183.3 94.7971 185.05C93.3971 187.85 97.247 189.6 100.047 189.6C103.547 189.6 108.01 188.311 111.597 185.05C116.237 180.831 115.797 175.25 117.197 170C119.647 173.15 119.297 185.05 117.547 187.85C115.097 192.05 115.447 193.45 117.197 195.2C122.097 197.883 131.547 195.2 135.747 189.6C141.697 180.15 142.198 174.2 145.197 163.35Z" fill="#0A5D69"/>
<circle cx="93.45" cy="101.75" r="9.45" fill="#0A5D69"/>
<circle cx="122.149" cy="97.55" r="9.45" fill="#0A5D69"/>
<rect x="84" y="94.4" width="55.3" height="49.7" rx="24.85" fill="#F3F6F7"/>
<ellipse cx="122.24" cy="115.122" rx="6.20107" ry="8.12189" transform="rotate(-31.8762 122.24 115.122)" fill="#0A5D69"/>
<ellipse rx="6.20107" ry="8.12189" transform="matrix(-0.978754 -0.205037 -0.205037 0.978754 98.7341 121.821)" fill="#0A5D69"/>
<path d="M107.45 128C107.963 130.604 112.7 131.85 113.4 131.85C114.099 131.85 118.639 127.922 117.25 125.2C115.85 122.75 107.1 124.85 107.45 128Z" fill="#0A5D69"/>
<ellipse cx="100.449" cy="120.3" rx="1.75" ry="2.1" fill="#F3F6F7"/>
<ellipse cx="119.35" cy="114.7" rx="1.75" ry="2.1" fill="#F3F6F7"/>
<path d="M161.129 30.7H153.779L156.929 61.5L157.629 86H166.029L162.529 61.5L161.129 30.7Z" fill="#216E7A"/>
<path d="M165.009 90.2H159.103C158.689 90.2 158.365 90.5586 158.407 90.9712L161.478 121L162.159 144.82C162.17 145.199 162.48 145.5 162.858 145.5H169.771C170.197 145.5 170.524 145.123 170.464 144.701L167.078 121L165.708 90.8682C165.692 90.4943 165.383 90.2 165.009 90.2Z" fill="#216E7A"/>
<path d="M179.314 111.2L172.577 111.2C172.166 111.2 171.843 111.554 171.88 111.963L173.332 127.897L173.332 142.271C173.332 142.687 173.692 143.011 174.106 142.967L181.284 142.2C181.683 142.158 181.965 141.789 181.901 141.392L179.689 127.713C179.683 127.671 179.68 127.629 179.68 127.586L180.014 111.915C180.022 111.523 179.706 111.2 179.314 111.2Z" fill="#216E7A"/>
<path d="M169.56 149.7H163.654C163.239 149.7 162.916 150.059 162.958 150.471L166.023 180.442C166.027 180.481 166.028 180.519 166.025 180.558L165.377 190.605C165.351 191.008 165.671 191.35 166.076 191.35H172.88C173.32 191.35 173.651 190.949 173.568 190.517L171.639 180.55C171.632 180.517 171.628 180.483 171.627 180.449L170.259 150.368C170.242 149.994 169.934 149.7 169.56 149.7Z" fill="#216E7A"/>
<path d="M149.717 162.571C153.79 160.143 159.627 152.006 160.053 145.849C160.079 145.463 159.769 145.221 159.446 145.433C156.905 147.1 149.057 155.767 148.848 162.059C148.832 162.529 149.313 162.812 149.717 162.571Z" fill="#216E7A"/>
<path d="M147.001 139.326C148.5 143.669 154.295 144.389 158.332 144.212C158.593 144.2 158.846 144.035 158.833 143.774C158.728 141.723 152.032 138.887 147.631 138.536C147.19 138.501 146.857 138.908 147.001 139.326Z" fill="#216E7A"/>
<path d="M169.74 102.447C174.819 101.356 183.451 95.0821 185.489 89.184C185.615 88.8186 185.38 88.4905 185.006 88.587C181.884 89.392 170.834 95.6214 169.054 101.719C168.927 102.155 169.297 102.542 169.74 102.447Z" fill="#216E7A"/>
<path d="M239.845 121.21C236.782 125.405 227.539 130.738 221.322 130.2C220.937 130.166 220.733 129.818 220.973 129.515C222.979 126.991 233.165 119.431 239.46 120.287C239.909 120.348 240.112 120.844 239.845 121.21Z" fill="#216E7A"/>
<path d="M248.69 48.1468C243.227 53.0573 228.524 57.5488 220.572 54.4829C220.211 54.3439 220.09 53.945 220.382 53.6916C223.493 50.9911 240.661 43.4323 248.548 47.1403C248.95 47.3294 249.02 47.8498 248.69 48.1468Z" fill="#216E7A"/>
<path d="M226.043 32.2888C226.402 38.034 222.318 48.9868 216.769 52.5205C216.443 52.7281 216.06 52.5818 216.05 52.1953C215.954 48.7406 219.318 35.0559 225.173 31.8014C225.561 31.5858 226.015 31.8459 226.043 32.2888Z" fill="#216E7A"/>
<path d="M236.413 70.5352C233.792 64.9946 225.137 57.17 219.226 57.1297C218.84 57.127 218.592 57.4639 218.767 57.8082C220.403 61.0098 229.972 71.8272 235.951 71.3801C236.368 71.3489 236.592 70.9133 236.413 70.5352Z" fill="#216E7A"/>
<path d="M194.563 29.7215L187.225 29.3L188.603 60.23L187.897 84.7298L196.283 85.2115L194.194 60.5511L194.563 29.7215Z" fill="#216E7A"/>
<path d="M216.042 10.1877L208.789 9L206.921 39.9042L203.653 64.1954L211.942 65.5527L212.447 40.8091L216.042 10.1877Z" fill="#216E7A"/>
<path d="M224.397 75.1706L214.92 73.4L212.366 104.277L208.006 128.404L218.837 130.428L219.587 105.626L224.397 75.1706Z" fill="#216E7A"/>
<path d="M195.024 89.3461L189.127 89.0075C188.713 88.9837 188.37 89.3231 188.388 89.7375L189.732 119.893L189.046 143.713C189.035 144.091 189.327 144.41 189.705 144.432L196.606 144.828C197.032 144.853 197.38 144.495 197.344 144.07L195.323 120.214L195.683 90.0534C195.688 89.6791 195.397 89.3676 195.024 89.3461Z" fill="#216E7A"/>
<path d="M210.257 69.533L204.429 68.5786C204.02 68.5116 203.642 68.8132 203.617 69.2272L201.796 99.3576L198.618 122.975C198.568 123.35 198.825 123.697 199.199 123.759L206.021 124.876C206.441 124.945 206.825 124.625 206.834 124.199L207.322 100.263L210.839 70.3054C210.883 69.9337 210.627 69.5934 210.257 69.533Z" fill="#216E7A"/>
<path d="M216.835 134.329L208.792 132.827C208.376 132.749 207.975 133.053 207.94 133.474L205.452 163.557L201.15 188.985C201.083 189.378 201.362 189.737 201.761 189.773L210.774 190.582C211.181 190.619 211.543 190.305 211.561 189.9L212.673 164.906L217.381 135.101C217.438 134.735 217.199 134.397 216.835 134.329Z" fill="#216E7A"/>
<path d="M196.164 149.01L190.257 148.67C189.844 148.647 189.5 148.985 189.518 149.399L190.526 172.749C190.527 172.783 190.526 172.817 190.523 172.851L188.85 189.251C188.81 189.636 189.092 189.981 189.478 190.018L198.445 190.897C198.894 190.94 199.266 190.556 199.208 190.109L196.887 172.327L196.824 149.707C196.823 149.336 196.534 149.031 196.164 149.01Z" fill="#216E7A"/>
<path d="M176.761 69.3836C174.914 74.8673 180.646 80.9025 185.072 84.393C185.272 84.551 185.561 84.5971 185.729 84.4054C187.378 82.5301 182.235 73.4329 177.774 69.1523C177.443 68.8347 176.907 68.949 176.761 69.3836Z" fill="#216E7A"/>
<path d="M231.551 148.329C226.241 147.959 222.768 140.782 221.092 135.639C221.014 135.398 221.069 135.111 221.308 135.031C223.475 134.304 229.763 142.011 232.132 147.468C232.317 147.894 232.014 148.361 231.551 148.329Z" fill="#216E7A"/>
<path d="M180.964 145.821L174.228 145.821C173.816 145.821 173.493 146.175 173.531 146.585L174.982 162.518L174.982 190.221C174.982 190.637 175.343 190.962 175.756 190.917L182.989 190.145C183.367 190.104 183.644 189.769 183.612 189.39L181.329 162.271L181.664 146.536C181.673 146.144 181.357 145.821 180.964 145.821Z" fill="#216E7A"/>
</svg>
