<svg width="1920" height="515" viewBox="0 0 1920 515" fill="none" xmlns="http://www.w3.org/2000/svg">
<path d="M121.95 165.296L6.16623 277.477C-1.61027 285.011 -6 295.376 -6 306.204V424.84C-6 446.931 11.9086 464.84 34 464.84H103.673H440.5H739.28H969.221C973.757 464.84 978.26 465.611 982.537 467.121L1111.69 512.718C1115.97 514.228 1120.47 515 1125 515H1311.33C1315.46 515 1319.56 514.361 1323.49 513.106L1565.86 435.734C1569.8 434.479 1573.9 433.84 1578.03 433.84H1832H1932.77C1946.59 433.84 1959.44 426.7 1966.74 414.957L2001.97 358.278C2005.91 351.94 2008 344.625 2008 337.161V208.259C2008 186.168 1990.09 168.259 1968 168.259H1953.9C1945.33 168.259 1936.98 165.507 1930.09 160.408L1795.28 60.5969C1787.78 55.0413 1778.57 52.2857 1769.24 52.8077L1587.48 62.9852C1577.4 63.5495 1567.91 67.9045 1560.9 75.1763L1446.51 193.968C1438.97 201.798 1428.57 206.222 1417.7 206.222H1330.22C1321.98 206.222 1313.94 203.677 1307.2 198.936L1213.25 132.838C1206.52 128.096 1198.48 125.552 1190.24 125.552H990.378C981.129 125.552 972.166 128.757 965.014 134.622L825.117 249.349C817.966 255.214 809.002 258.42 799.753 258.42H620.477C611.84 258.42 603.436 255.625 596.52 250.452L478.243 161.991C471.327 156.819 462.922 154.024 454.286 154.024H149.784C139.394 154.024 129.412 158.066 121.95 165.296Z" fill="#2A8086"/>
<path d="M122.177 126.983L7.24899 230.365C-1.18414 237.951 -6 248.761 -6 260.104V365.292C-6 387.384 11.9086 405.292 34 405.292H95.7997C100.999 405.292 106.148 404.279 110.959 402.308L300.778 324.569C305.589 322.599 310.739 321.585 315.938 321.585H616.086C624.856 321.585 633.383 324.467 640.354 329.788L728.532 397.089C735.503 402.41 744.03 405.292 752.8 405.292H965.167C972.308 405.292 979.319 407.204 985.472 410.829L1108.75 483.463C1114.91 487.088 1121.92 489 1129.06 489H1309.61C1314.86 489 1320.05 487.968 1324.9 485.962L1434.71 440.538L1566.9 406.552C1570.15 405.716 1573.5 405.292 1576.86 405.292H1771.25C1779.34 405.292 1787.24 402.839 1793.9 398.256L1930.46 304.39C1937.13 299.807 1945.03 297.354 1953.12 297.354H1968C1990.09 297.354 2008 279.445 2008 257.354V169.939C2008 147.847 1990.09 129.939 1968 129.939H1953.12C1945.03 129.939 1937.13 127.485 1930.46 122.902L1794.85 29.6868C1787.6 24.7018 1778.91 22.2476 1770.12 22.7045L1586.73 32.2382C1577.1 32.7386 1567.98 36.6979 1561.04 43.3878L1446.33 153.98C1438.87 161.168 1428.92 165.184 1418.57 165.184H1329.46C1321.69 165.184 1314.09 162.921 1307.59 158.672L1212.87 96.7992C1206.36 92.5504 1198.76 90.2877 1190.99 90.2877H989.569C980.815 90.2877 972.302 93.1595 965.337 98.4626L824.794 205.471C817.829 210.774 809.316 213.646 800.562 213.646H619.699C611.544 213.646 603.583 211.153 596.885 206.502L477.878 123.866C471.179 119.214 463.219 116.722 455.063 116.722H148.928C139.05 116.722 129.521 120.377 122.177 126.983Z" fill="#2A808D" fill-opacity="0.3"/>
<path d="M596.089 343.199C595.84 342.194 595.934 340.339 595.934 340.339L591.452 338.33C591.452 338.33 591.861 339.552 591.761 340.339C591.676 341.012 591.274 341.297 591.143 341.962C590.99 342.732 591.321 343.208 591.143 343.972C591.017 344.512 590.602 345.286 590.602 345.286C590.602 345.286 589.982 345.142 589.674 344.899C589.239 344.556 589.182 344.178 588.979 343.663C588.437 342.286 589.133 339.876 588.979 339.876C588.824 339.876 584.96 342.503 584.96 342.503C584.96 342.503 585.479 343.65 585.578 344.435C585.731 345.64 585.55 346.459 586.351 347.527C586.684 347.803 587.356 347.991 587.356 347.991C587.356 347.991 589.52 350 589.443 349.459C589.443 348.763 589.288 347.681 589.288 347.681C589.288 347.681 593.925 349.845 593.925 349.459C594.08 348.841 593.384 347.991 593.384 347.991C593.384 347.991 595.007 348.995 594.852 348.531C594.744 348.208 594.536 347.85 594.344 347.561C594.429 347.629 594.522 347.677 594.621 347.681C595.164 347.705 595.084 346.368 595.084 346.368C595.084 346.368 597.635 347.991 598.794 347.991C599.059 347.478 598.948 346.522 598.948 346.522C598.948 346.522 600.803 347.14 601.653 347.063C601.499 346.058 600.771 345.781 600.03 345.131C598.743 343.999 596.862 343.585 596.089 343.199Z" fill="#0A5D69"/>
<path d="M608.995 284.387C609.238 284.487 609.531 284.674 609.738 284.816C609.845 284.89 609.813 285.051 609.686 285.082C609.423 285.147 609.046 285.241 608.763 285.314C607.367 285.675 606.557 285.807 605.208 286.319C603.53 286.955 602.559 287.343 601.112 288.405C600.44 288.899 600.034 289.164 599.489 289.796L599.483 289.804C598.686 290.731 598.145 291.36 598.021 292.579C597.987 292.909 598.021 293.429 598.021 293.429C598.021 293.429 597.206 293.932 596.63 294.124C595.084 294.665 589.443 292.347 589.443 289.874C590.061 287.942 591.274 286.237 593.461 285.314C594.069 285.058 594.433 284.953 595.084 284.85C595.919 284.719 596.405 284.803 597.248 284.85C598.527 284.922 599.214 285.348 600.494 285.314C601.471 285.288 602.004 285.091 602.967 284.928C604.543 284.66 605.388 284.132 606.986 284.155C607.776 284.166 608.265 284.085 608.995 284.387Z" fill="#0A5D69"/>
<path d="M593.693 293.351C594.709 293.793 596.367 294.061 596.718 294.114C596.744 294.118 596.753 294.151 596.732 294.169L595.239 295.438L592.38 297.602C592.38 297.602 590.412 299.32 589.675 300.77C589.324 301.46 589.239 301.897 588.979 302.625C588.331 304.442 587.511 307.34 587.511 307.34C587.511 307.34 586.947 309.355 586.197 310.431C585.757 311.062 585.387 311.317 584.883 311.899C584.041 312.872 583.374 313.3 582.796 314.45C582.065 315.904 582.349 316.778 582.024 318.546C581.595 320.871 580.71 324.883 580.71 324.883V326.042C580.71 327.521 580.553 328.358 580.71 329.829C580.863 331.271 581.483 333.461 581.483 333.461L583.197 338.962C583.214 339.016 583.141 339.047 583.114 338.998C582.786 338.384 582.171 337.217 581.792 336.398C581.251 334.93 581.094 333.509 580.555 331.684C580.324 330.9 579.962 329.769 579.832 329.363C579.817 329.319 579.754 329.321 579.743 329.367L578.546 334.08C578.546 334.08 577.928 335.78 577.309 335.857C576.933 335.542 577.077 334.621 577.077 334.621C577.077 334.621 577.812 332.332 578.159 330.834C578.506 329.34 578.556 328.473 578.855 326.97C578.999 326.244 579.118 325.844 579.241 325.115C579.319 323.646 579.391 321.206 579.473 318.7C579.539 316.708 579.343 315.572 579.628 313.6C579.778 312.563 579.913 311.988 580.169 310.972C580.667 308.991 581.101 307.918 581.869 306.026C582.545 304.362 583.106 303.508 583.801 301.852C584.352 300.54 584.493 299.733 585.115 298.452C585.825 296.99 586.493 296.32 587.279 294.897C587.821 293.916 588.156 293.379 588.593 292.347C588.945 291.513 589.34 290.215 589.426 289.93C589.433 289.906 589.464 289.9 589.479 289.92C589.662 290.148 590.484 291.162 591.143 291.728C592.038 292.498 592.611 292.881 593.693 293.351Z" fill="#0A5D69"/>
<path d="M604.127 318.005C603.756 316.553 602.89 314.373 602.89 314.373L600.185 330.602C600.185 330.602 600.649 332.766 602.04 332.38C602.89 331.993 603.817 331.298 604.281 330.37C604.656 329.682 604.67 329.207 604.822 328.438C605.063 327.221 605.049 326.51 605.054 325.27C605.06 323.768 604.947 322.92 604.75 321.442L604.745 321.405C604.566 320.067 604.461 319.313 604.127 318.005Z" fill="#0A5D69" stroke="#0A5D69" stroke-width="0.154567"/>
<path d="M597.216 294.246L597.216 294.246C596.739 294.723 596.429 294.988 596.05 295.312C595.925 295.418 595.793 295.531 595.645 295.66C595.087 296.147 594.585 296.449 594.132 296.721C594.087 296.748 594.044 296.774 594 296.801C593.515 297.094 593.072 297.379 592.581 297.876C590.835 299.645 589.856 300.74 589.229 302.991C588.459 305.753 587.395 309.169 585.681 311.643L585.655 311.68L585.623 311.712C585.42 311.915 585.194 312.126 584.967 312.338C584.948 312.356 584.93 312.373 584.911 312.39C584.663 312.622 584.412 312.858 584.171 313.101C583.684 313.593 583.266 314.088 583.012 314.596C582.207 316.206 581.21 320.373 581.21 324.651C581.21 325.446 581.162 326.091 581.117 326.698C581.11 326.788 581.103 326.878 581.097 326.968C581.048 327.649 581.011 328.314 581.054 329.164C581.434 331.896 581.966 333.95 582.808 336.706C583.606 338.968 584.519 340.743 585.394 342.356C585.945 342.279 586.524 342.125 587.023 341.957C587.319 341.858 587.58 341.756 587.782 341.666C587.883 341.622 587.967 341.582 588.031 341.548C588.052 341.537 588.071 341.526 588.087 341.517C588.091 341.503 588.096 341.484 588.101 341.461C588.113 341.404 588.124 341.337 588.137 341.252L588.142 341.22C588.153 341.146 588.167 341.061 588.182 340.976C588.248 340.62 588.395 340.006 588.998 339.733C589.211 339.629 589.465 339.573 589.698 339.532C589.812 339.512 589.963 339.489 590.116 339.465C590.251 339.445 590.388 339.424 590.505 339.404C591.078 339.307 591.71 339.161 592.329 338.825C592.673 338.639 593.113 338.677 593.415 338.961C593.691 339.22 594.111 339.588 594.558 339.889C594.934 340.142 595.268 340.304 595.525 340.36C595.59 340.269 595.626 340.155 595.659 339.982C595.667 339.938 595.675 339.888 595.684 339.832C595.724 339.581 595.782 339.22 595.951 338.88C596.231 338.317 596.514 337.915 596.803 337.536C596.876 337.441 596.947 337.349 597.019 337.257C597.234 336.98 597.448 336.706 597.682 336.353C597.944 335.961 598.173 335.643 598.383 335.352C598.824 334.741 599.179 334.25 599.562 333.438C599.927 332.185 600.08 331.008 600.195 329.742C600.225 329.414 600.253 329.078 600.281 328.734C600.362 327.745 600.45 326.683 600.618 325.508C600.939 323.266 601.268 321.195 601.574 319.29C601.615 319.035 601.656 318.783 601.696 318.533C601.955 316.928 602.193 315.448 602.393 314.085C602.557 311.991 602.642 310.822 602.622 308.736C602.618 308.319 602.617 307.927 602.617 307.555C602.613 305.655 602.61 304.249 602.172 302.434L602.172 302.434L602.171 302.428C601.585 299.862 600.901 298.453 599.608 296.169C599.456 295.953 599.311 295.736 599.168 295.524C598.945 295.189 598.729 294.867 598.506 294.575C598.328 294.341 598.171 294.163 598.036 294.047C597.917 293.944 597.861 293.93 597.859 293.929C597.646 293.93 597.527 293.982 597.456 294.027C597.387 294.07 597.348 294.11 597.286 294.174C597.266 294.195 597.243 294.219 597.216 294.246ZM596.862 293.892L596.862 293.892L596.862 293.892Z" fill="white" stroke="#0A5D69"/>
<path d="M1110.51 192.5C1111.75 174.157 1095.42 146.994 1090.01 146C1090.01 146 1060.01 192.5 1046.01 220.5C1046.45 224.844 1048.27 227.142 1048.01 231.5C1047.74 236 1042.35 238.541 1044.51 242.5C1046.87 246.842 1057.01 244.5 1057.01 244.5C1071.01 242 1072.01 221.5 1073.51 221C1076.01 224.5 1078.65 235.5 1077.51 239.5C1076.51 243 1073.37 244.732 1074.51 248C1075.77 251.637 1079.51 253 1083.01 253C1091.51 253.5 1098.51 247 1103.01 241C1111.51 228 1111.51 205.5 1110.51 192.5Z" fill="#0A5D69"/>
<rect x="982" y="130" width="123" height="92" rx="46" fill="#F3F6F7"/>
<path d="M1029.42 220.5C1038.92 192.5 1032.92 144.5 1010.42 134C1002.09 134.336 989.424 142 989.424 142C989.424 142 960.449 176.921 957.424 204C957.924 214.5 963.925 231.5 961.924 246C959.424 248.39 958.924 249 957.424 251.5C955.424 255.5 960.924 258 964.924 258C969.924 258 976.3 256.159 981.424 251.5C988.053 245.473 987.424 237.5 989.424 230C992.924 234.5 992.424 251.5 989.924 255.5C986.424 261.5 986.924 263.5 989.424 266C996.424 269.833 1009.92 266 1015.92 258C1024.42 244.5 1025.14 236 1029.42 220.5Z" fill="#0A5D69"/>
<circle cx="955.5" cy="132.5" r="13.5" fill="#0A5D69"/>
<circle cx="996.5" cy="126.5" r="13.5" fill="#0A5D69"/>
<rect x="942" y="122" width="79" height="71" rx="35.5" fill="#F3F6F7"/>
<ellipse cx="996.63" cy="151.602" rx="8.85868" ry="11.6027" transform="rotate(-31.8762 996.63 151.602)" fill="#0A5D69"/>
<ellipse rx="8.85868" ry="11.6027" transform="matrix(-0.978754 -0.205037 -0.205037 0.978754 963.05 161.173)" fill="#0A5D69"/>
<path d="M975.5 170C976.233 173.72 983 175.5 984 175.5C984.999 175.5 991.484 169.889 989.5 166C987.5 162.5 975 165.5 975.5 170Z" fill="#0A5D69"/>
<ellipse cx="965.5" cy="159" rx="2.5" ry="3" fill="#F3F6F7"/>
<ellipse cx="992.5" cy="151" rx="2.5" ry="3" fill="#F3F6F7"/>
<path d="M1052.18 31H1041.68L1046.18 75L1047.18 110H1059.18L1054.18 75L1052.18 31Z" fill="#216E7A"/>
<path d="M1057.73 116H1049.29C1048.7 116 1048.24 116.512 1048.3 117.102L1052.68 160L1053.66 194.029C1053.67 194.57 1054.11 195 1054.66 195H1064.53C1065.14 195 1065.61 194.461 1065.52 193.859L1060.68 160L1058.73 116.955C1058.7 116.421 1058.26 116 1057.73 116Z" fill="#216E7A"/>
<path d="M1078.16 146L1068.54 146C1067.95 146 1067.49 146.505 1067.54 147.091L1069.62 169.852L1069.62 190.388C1069.62 190.982 1070.13 191.445 1070.72 191.382L1080.98 190.286C1081.55 190.225 1081.95 189.698 1081.86 189.132L1078.7 169.59C1078.69 169.53 1078.68 169.47 1078.69 169.409L1079.16 147.021C1079.17 146.461 1078.72 146 1078.16 146Z" fill="#216E7A"/>
<path d="M1064.23 201H1055.79C1055.2 201 1054.74 201.512 1054.8 202.102L1059.18 244.917C1059.18 244.972 1059.18 245.028 1059.18 245.083L1058.25 259.436C1058.22 260.012 1058.67 260.5 1059.25 260.5H1068.97C1069.6 260.5 1070.07 259.927 1069.95 259.31L1067.2 245.072C1067.19 245.024 1067.18 244.976 1067.18 244.927L1065.23 201.955C1065.2 201.421 1064.76 201 1064.23 201Z" fill="#216E7A"/>
<path d="M1035.88 219.387C1041.7 215.918 1050.04 204.294 1050.65 195.498C1050.69 194.947 1050.24 194.602 1049.78 194.905C1046.15 197.286 1034.94 209.667 1034.64 218.656C1034.62 219.327 1035.31 219.731 1035.88 219.387Z" fill="#216E7A"/>
<path d="M1032 186.18C1034.14 192.385 1042.42 193.413 1048.19 193.159C1048.56 193.143 1048.92 192.907 1048.9 192.534C1048.75 189.604 1039.19 185.553 1032.9 185.052C1032.27 185.001 1031.8 185.583 1032 186.18Z" fill="#216E7A"/>
<path d="M1064.49 133.495C1071.74 131.936 1084.07 122.974 1086.98 114.549C1087.16 114.027 1086.83 113.558 1086.29 113.696C1081.83 114.846 1066.05 123.745 1063.51 132.456C1063.32 133.078 1063.85 133.631 1064.49 133.495Z" fill="#216E7A"/>
<path d="M1164.64 160.3C1160.26 166.293 1147.06 173.912 1138.17 173.142C1137.62 173.095 1137.33 172.597 1137.68 172.165C1140.54 168.558 1155.09 157.759 1164.09 158.981C1164.73 159.068 1165.02 159.777 1164.64 160.3Z" fill="#216E7A"/>
<path d="M1177.27 55.9242C1169.47 62.9392 1148.46 69.3556 1137.1 64.9758C1136.59 64.7771 1136.41 64.2073 1136.83 63.8453C1141.28 59.9874 1165.8 49.1891 1177.07 54.4863C1177.64 54.7564 1177.74 55.4999 1177.27 55.9242Z" fill="#216E7A"/>
<path d="M1144.92 33.2697C1145.43 41.4772 1139.6 57.124 1131.67 62.1721C1131.2 62.4687 1130.66 62.2597 1130.64 61.7076C1130.51 56.7723 1135.31 37.2227 1143.68 32.5734C1144.23 32.2654 1144.88 32.6369 1144.92 33.2697Z" fill="#216E7A"/>
<path d="M1159.73 87.9071C1155.99 79.992 1143.62 68.814 1135.18 68.7564C1134.63 68.7526 1134.27 69.2339 1134.52 69.7257C1136.86 74.2993 1150.53 89.7528 1159.07 89.1141C1159.67 89.0695 1159.99 88.4473 1159.73 87.9071Z" fill="#216E7A"/>
<path d="M1099.95 29.6021L1089.46 29L1091.43 73.1856L1090.42 108.185L1102.4 108.874L1099.42 73.6444L1099.95 29.6021Z" fill="#216E7A"/>
<path d="M1130.63 1.69669L1120.27 0L1117.6 44.1489L1112.93 78.8505L1124.77 80.7896L1125.5 45.4416L1130.63 1.69669Z" fill="#216E7A"/>
<path d="M1142.57 94.5294L1129.03 92L1125.38 136.111L1119.15 170.577L1134.63 173.468L1135.7 138.038L1142.57 94.5294Z" fill="#216E7A"/>
<path d="M1100.61 114.78L1092.18 114.296C1091.59 114.262 1091.1 114.747 1091.13 115.339L1093.05 158.419L1092.07 192.447C1092.05 192.988 1092.47 193.443 1093.01 193.474L1102.87 194.04C1103.47 194.075 1103.97 193.564 1103.92 192.958L1101.03 158.877L1101.55 115.791C1101.55 115.256 1101.14 114.811 1100.61 114.78Z" fill="#216E7A"/>
<path d="M1122.37 86.4759L1114.04 85.1126C1113.46 85.0168 1112.92 85.4476 1112.88 86.0391L1110.28 129.083L1105.74 162.821C1105.67 163.357 1106.04 163.854 1106.57 163.941L1116.32 165.537C1116.92 165.635 1117.46 165.179 1117.48 164.57L1118.17 130.375L1123.2 87.5793C1123.26 87.0484 1122.9 86.5623 1122.37 86.4759Z" fill="#216E7A"/>
<path d="M1131.77 179.041L1120.28 176.895C1119.68 176.784 1119.11 177.219 1119.06 177.819L1115.5 220.796L1109.36 257.121C1109.26 257.683 1109.66 258.196 1110.23 258.247L1123.11 259.403C1123.69 259.455 1124.21 259.007 1124.23 258.428L1125.82 222.723L1132.54 180.143C1132.63 179.622 1132.29 179.139 1131.77 179.041Z" fill="#216E7A"/>
<path d="M1102.24 200.014L1093.8 199.529C1093.21 199.495 1092.71 199.979 1092.74 200.571L1094.18 233.928C1094.18 233.976 1094.18 234.024 1094.18 234.072L1091.79 257.501C1091.73 258.052 1092.13 258.544 1092.68 258.598L1105.49 259.852C1106.13 259.915 1106.67 259.366 1106.58 258.728L1103.27 233.325L1103.18 201.01C1103.18 200.481 1102.76 200.044 1102.24 200.014Z" fill="#216E7A"/>
<path d="M1074.52 86.262C1071.88 94.0959 1080.07 102.718 1086.39 107.704C1086.68 107.93 1087.09 107.996 1087.33 107.722C1089.68 105.043 1082.34 92.0467 1075.96 85.9316C1075.49 85.4779 1074.73 85.6411 1074.52 86.262Z" fill="#216E7A"/>
<path d="M1152.78 199.042C1145.2 198.513 1140.24 188.26 1137.84 180.912C1137.73 180.569 1137.81 180.159 1138.15 180.044C1141.25 179.006 1150.23 190.016 1153.62 197.812C1153.88 198.421 1153.45 199.088 1152.78 199.042Z" fill="#216E7A"/>
<path d="M1080.52 195.459L1070.9 195.459C1070.31 195.459 1069.85 195.964 1069.9 196.549L1071.98 219.311L1071.98 258.887C1071.98 259.482 1072.49 259.945 1073.08 259.882L1083.41 258.778C1083.95 258.72 1084.35 258.241 1084.3 257.7L1081.04 218.959L1081.52 196.48C1081.53 195.919 1081.08 195.459 1080.52 195.459Z" fill="#216E7A"/>
<circle cx="1757.07" cy="266.214" r="65.0658" fill="#216E7A"/>
<circle cx="1757.07" cy="221.066" r="65.0658" fill="#216E7A"/>
<rect x="1746.47" y="267.974" width="15.1316" height="118.026" rx="7.56579" fill="#1D6874"/>
<circle cx="449.066" cy="150.214" r="65.0658" fill="#216E7A"/>
<circle cx="449.066" cy="105.066" r="65.0658" fill="#216E7A"/>
<rect x="438.474" y="151.974" width="15.1316" height="118.026" rx="7.56579" fill="#1D6874"/>
</svg>
