<svg width="1920" height="523" viewBox="0 0 1920 523" fill="none" xmlns="http://www.w3.org/2000/svg">
<path d="M106.95 173.296L-8.83377 285.477C-16.6103 293.011 -21 303.376 -21 314.204V432.84C-21 454.931 -3.09142 472.84 19 472.84H88.6733H425.5H724.28H954.221C958.757 472.84 963.26 473.611 967.537 475.121L1096.69 520.718C1100.97 522.228 1105.47 523 1110 523H1296.33C1300.46 523 1304.56 522.361 1308.49 521.106L1550.86 443.734C1554.8 442.479 1558.9 441.84 1563.03 441.84H1817H1919.32C1933.39 441.84 1946.42 434.448 1953.64 422.373L1987.33 366.064C1991.04 359.858 1993 352.761 1993 345.53V216.259C1993 194.168 1975.09 176.259 1953 176.259H1938.9C1930.33 176.259 1921.98 173.507 1915.09 168.408L1780.28 68.5969C1772.78 63.0413 1763.57 60.2857 1754.24 60.8077L1572.48 70.9852C1562.4 71.5495 1552.91 75.9045 1545.9 83.1763L1431.51 201.968C1423.97 209.798 1413.57 214.222 1402.7 214.222H1315.22C1306.98 214.222 1298.94 211.677 1292.2 206.936L1198.25 140.838C1191.52 136.096 1183.48 133.552 1175.24 133.552H975.378C966.129 133.552 957.166 136.757 950.014 142.622L810.117 257.349C802.966 263.214 794.002 266.42 784.753 266.42H605.477C596.84 266.42 588.436 263.625 581.52 258.452L463.243 169.991C456.327 164.819 447.922 162.024 439.286 162.024H134.784C124.394 162.024 114.412 166.066 106.95 173.296Z" fill="#2A808D" fill-opacity="0.3"/>
<path d="M106.95 143.296L-8.83377 255.477C-16.6103 263.011 -21 273.376 -21 284.204V402.84C-21 424.931 -3.09142 442.84 19 442.84H88.6733H425.5H724.28H954.221C958.757 442.84 963.26 443.611 967.537 445.121L1096.69 490.718C1100.97 492.228 1105.47 493 1110 493H1296.33C1300.46 493 1304.56 492.361 1308.49 491.106L1550.86 413.734C1554.8 412.479 1558.9 411.84 1563.03 411.84H1817H1917.77C1931.59 411.84 1944.44 404.7 1951.74 392.957L1986.97 336.278C1990.91 329.94 1993 322.625 1993 315.161V186.259C1993 164.168 1975.09 146.259 1953 146.259H1938.9C1930.33 146.259 1921.98 143.507 1915.09 138.408L1780.28 38.5969C1772.78 33.0413 1763.57 30.2857 1754.24 30.8077L1572.48 40.9852C1562.4 41.5495 1552.91 45.9045 1545.9 53.1763L1431.51 171.968C1423.97 179.798 1413.57 184.222 1402.7 184.222H1315.22C1306.98 184.222 1298.94 181.677 1292.2 176.936L1198.25 110.838C1191.52 106.096 1183.48 103.552 1175.24 103.552H975.378C966.129 103.552 957.166 106.757 950.014 112.622L810.117 227.349C802.966 233.214 794.002 236.42 784.753 236.42H605.477C596.84 236.42 588.436 233.625 581.52 228.452L463.243 139.991C456.327 134.819 447.922 132.024 439.286 132.024H134.784C124.394 132.024 114.412 136.066 106.95 143.296Z" fill="#2A8086"/>
<path d="M107.177 104.983L-7.75101 208.365C-16.1841 215.951 -21 226.761 -21 238.104V343.292C-21 365.384 -3.09142 383.292 19 383.292H80.7997C85.9989 383.292 91.1481 382.279 95.9594 380.308L285.778 302.569C290.589 300.599 295.739 299.585 300.938 299.585H601.086C609.856 299.585 618.383 302.467 625.354 307.788L713.532 375.089C720.503 380.41 729.03 383.292 737.8 383.292H950.167C957.308 383.292 964.319 385.204 970.472 388.829L1093.75 461.463C1099.91 465.088 1106.92 467 1114.06 467H1294.61C1299.86 467 1305.05 465.968 1309.9 463.962L1419.71 418.538L1551.9 384.552C1555.15 383.716 1558.5 383.292 1561.86 383.292H1756.25C1764.34 383.292 1772.24 380.839 1778.9 376.256L1915.46 282.39C1922.13 277.807 1930.03 275.354 1938.12 275.354H1953C1975.09 275.354 1993 257.445 1993 235.354V147.939C1993 125.847 1975.09 107.939 1953 107.939H1938.12C1930.03 107.939 1922.13 105.485 1915.46 100.902L1779.85 7.68683C1772.6 2.70181 1763.91 0.247621 1755.12 0.704499L1571.73 10.2382C1562.1 10.7386 1552.98 14.6979 1546.04 21.3878L1431.33 131.98C1423.87 139.168 1413.92 143.184 1403.57 143.184H1314.46C1306.69 143.184 1299.09 140.921 1292.59 136.672L1197.87 74.7992C1191.36 70.5504 1183.76 68.2877 1175.99 68.2877H974.569C965.815 68.2877 957.302 71.1595 950.337 76.4626L809.794 183.471C802.829 188.774 794.316 191.646 785.562 191.646H604.699C596.544 191.646 588.583 189.153 581.885 184.502L462.878 101.866C456.179 97.2145 448.219 94.7217 440.063 94.7217H133.928C124.05 94.7217 114.521 98.3769 107.177 104.983Z" fill="#2A808D" fill-opacity="0.3"/>
<path d="M17.7216 85.4707H9.43311L12.9853 120.203L13.7747 147.832H23.2472L19.3003 120.203L17.7216 85.4707Z" fill="#216E7A"/>
<path d="M22.0984 152.568H15.4384C14.9707 152.568 14.6056 152.972 14.6532 153.438L18.1164 187.301L18.8839 214.162C18.8961 214.589 19.2458 214.929 19.6729 214.929H27.4682C27.9485 214.929 28.3176 214.503 28.2496 214.028L24.4314 187.301L22.8869 153.321C22.8678 152.9 22.5204 152.568 22.0984 152.568Z" fill="#216E7A"/>
<path d="M38.2288 176.249L30.6318 176.249C30.1676 176.249 29.8036 176.648 29.8457 177.11L31.4826 195.078L31.4826 211.288C31.4826 211.757 31.8894 212.123 32.3559 212.073L40.4505 211.208C40.9006 211.16 41.2181 210.744 41.1459 210.297L38.6519 194.871C38.6443 194.823 38.641 194.776 38.642 194.728L39.018 177.055C39.0274 176.613 38.6713 176.249 38.2288 176.249Z" fill="#216E7A"/>
<path d="M27.2292 219.665H20.5693C20.1016 219.665 19.7364 220.069 19.784 220.535L23.2406 254.332C23.245 254.376 23.2459 254.42 23.243 254.463L22.5121 265.793C22.4827 266.248 22.8439 266.633 23.2998 266.633H30.9736C31.4698 266.633 31.8429 266.181 31.7486 265.694L29.5733 254.454C29.566 254.417 29.5614 254.378 29.5597 254.34L28.0178 220.419C27.9986 219.997 27.6513 219.665 27.2292 219.665Z" fill="#216E7A"/>
<path d="M4.85475 234.18C9.44773 231.441 16.0302 222.265 16.5099 215.322C16.5399 214.887 16.1901 214.615 15.8255 214.854C12.9606 216.733 4.11014 226.507 3.87467 233.602C3.85709 234.132 4.39954 234.451 4.85475 234.18Z" fill="#216E7A"/>
<path d="M1.79097 207.966C3.48064 212.864 10.0162 213.676 14.5683 213.476C14.8627 213.463 15.1487 213.277 15.1336 212.982C15.0153 210.67 7.46362 207.472 2.50116 207.076C2.00437 207.036 1.62844 207.495 1.79097 207.966Z" fill="#216E7A"/>
<path d="M27.4336 166.378C33.1606 165.148 42.8952 158.073 45.1929 151.422C45.3352 151.01 45.07 150.64 44.6478 150.749C41.1272 151.657 28.6663 158.681 26.6594 165.558C26.5162 166.049 26.9338 166.486 27.4336 166.378Z" fill="#216E7A"/>
<path d="M106.489 187.537C103.035 192.268 92.6119 198.282 85.6013 197.675C85.1669 197.637 84.9369 197.244 85.2081 196.903C87.4698 194.056 98.9567 185.532 106.055 186.496C106.561 186.565 106.791 187.124 106.489 187.537Z" fill="#216E7A"/>
<path d="M116.463 105.145C110.303 110.683 93.7225 115.748 84.7548 112.29C84.348 112.134 84.2113 111.684 84.5406 111.398C88.0492 108.353 107.409 99.8287 116.303 104.01C116.756 104.223 116.835 104.81 116.463 105.145Z" fill="#216E7A"/>
<path d="M90.9252 87.2624C91.3298 93.7412 86.7254 106.092 80.467 110.077C80.0992 110.311 79.6681 110.146 79.656 109.711C79.5481 105.815 83.3417 90.3828 89.9448 86.7128C90.3822 86.4697 90.8941 86.7629 90.9252 87.2624Z" fill="#216E7A"/>
<path d="M102.619 130.392C99.6628 124.144 89.9034 115.32 83.2376 115.275C82.8017 115.272 82.5217 115.652 82.7201 116.04C84.5645 119.65 95.3553 131.849 102.098 131.345C102.569 131.31 102.821 130.819 102.619 130.392Z" fill="#216E7A"/>
<path d="M55.4235 84.3673L47.1487 83.892L48.7033 118.771L47.907 146.399L57.364 146.942L55.0079 119.133L55.4235 84.3673Z" fill="#216E7A"/>
<path d="M79.6471 62.3393L71.4675 61L69.3606 95.8502L65.6752 123.243L75.0232 124.774L75.5926 96.8706L79.6471 62.3393Z" fill="#216E7A"/>
<path d="M89.0691 135.619L78.3816 133.623L75.5016 168.443L70.585 195.65L82.7993 197.932L83.6444 169.964L89.0691 135.619Z" fill="#216E7A"/>
<path d="M55.9451 151.605L49.2961 151.223C48.8292 151.196 48.4414 151.579 48.4623 152.046L49.9779 186.052L49.2038 212.913C49.1915 213.34 49.5211 213.7 49.9476 213.724L57.73 214.171C58.2096 214.199 58.6023 213.795 58.5618 213.317L56.2826 186.414L56.6892 152.403C56.6942 151.981 56.3664 151.629 55.9451 151.605Z" fill="#216E7A"/>
<path d="M73.1239 129.262L66.5515 128.186C66.0899 128.11 65.6642 128.45 65.636 128.917L63.5818 162.895L59.9986 189.527C59.9417 189.951 60.2319 190.342 60.6534 190.411L68.3462 191.671C68.8203 191.749 69.2532 191.388 69.263 190.908L69.8138 163.915L73.7803 130.133C73.8295 129.714 73.5403 129.33 73.1239 129.262Z" fill="#216E7A"/>
<path d="M80.5418 202.332L71.4723 200.637C71.0028 200.55 70.5506 200.893 70.5114 201.367L67.7054 235.292L62.8541 263.966C62.7791 264.41 63.0927 264.814 63.5428 264.855L73.7066 265.767C74.1655 265.809 74.5743 265.454 74.5946 264.998L75.8483 236.813L81.1571 203.202C81.2222 202.79 80.9525 202.408 80.5418 202.332Z" fill="#216E7A"/>
<path d="M57.2313 218.887L50.5701 218.504C50.1035 218.477 49.716 218.859 49.7361 219.326L50.8731 245.657C50.8748 245.695 50.8737 245.734 50.8698 245.772L48.9826 264.266C48.9382 264.701 49.2559 265.089 49.691 265.132L59.8037 266.122C60.3091 266.171 60.729 265.738 60.6633 265.234L58.0467 245.182L57.9754 219.673C57.9742 219.255 57.6481 218.911 57.2313 218.887Z" fill="#216E7A"/>
<path d="M35.3505 129.094C33.2679 135.277 39.7323 142.083 44.723 146.019C44.9489 146.198 45.2745 146.25 45.4645 146.033C47.3236 143.919 41.5234 133.66 36.4934 128.833C36.1202 128.475 35.5156 128.603 35.3505 129.094Z" fill="#216E7A"/>
<path d="M97.1342 218.119C91.1469 217.702 87.2296 209.609 85.3401 203.808C85.2519 203.537 85.3137 203.213 85.5837 203.123C88.0274 202.303 95.1184 210.994 97.7898 217.148C97.9984 217.629 97.6569 218.156 97.1342 218.119Z" fill="#216E7A"/>
<path d="M40.0909 215.291L32.4939 215.291C32.0296 215.291 31.6656 215.69 31.7078 216.152L33.3447 234.119L33.3447 265.36C33.3447 265.829 33.7514 266.195 34.2179 266.145L42.3734 265.274C42.8001 265.228 43.1122 264.85 43.0762 264.422L40.5025 233.841L40.8801 216.097C40.8895 215.655 40.5334 215.291 40.0909 215.291Z" fill="#216E7A"/>
<path d="M1118.51 283.5C1119.75 265.157 1103.42 237.994 1098.01 237C1098.01 237 1068.01 283.5 1054.01 311.5C1054.45 315.844 1056.27 318.142 1056.01 322.5C1055.74 327 1050.35 329.541 1052.51 333.5C1054.87 337.842 1065.01 335.5 1065.01 335.5C1079.01 333 1080.01 312.5 1081.51 312C1084.01 315.5 1086.65 326.5 1085.51 330.5C1084.51 334 1081.37 335.732 1082.51 339C1083.77 342.637 1087.51 344 1091.01 344C1099.51 344.5 1106.51 338 1111.01 332C1119.51 319 1119.51 296.5 1118.51 283.5Z" fill="#0A5D69"/>
<rect x="990" y="221" width="123" height="92" rx="46" fill="#F3F6F7"/>
<path d="M1037.42 311.5C1046.92 283.5 1040.92 235.5 1018.42 225C1010.09 225.336 997.424 233 997.424 233C997.424 233 968.449 267.921 965.424 295C965.924 305.5 971.925 322.5 969.924 337C967.424 339.39 966.924 340 965.424 342.5C963.424 346.5 968.924 349 972.924 349C977.924 349 984.3 347.159 989.424 342.5C996.053 336.473 995.424 328.5 997.424 321C1000.92 325.5 1000.42 342.5 997.924 346.5C994.424 352.5 994.924 354.5 997.424 357C1004.42 360.833 1017.92 357 1023.92 349C1032.42 335.5 1033.14 327 1037.42 311.5Z" fill="#0A5D69"/>
<circle cx="963.5" cy="223.5" r="13.5" fill="#0A5D69"/>
<circle cx="1004.5" cy="217.5" r="13.5" fill="#0A5D69"/>
<rect x="950" y="213" width="79" height="71" rx="35.5" fill="#F3F6F7"/>
<ellipse cx="1004.63" cy="242.602" rx="8.85868" ry="11.6027" transform="rotate(-31.8762 1004.63 242.602)" fill="#0A5D69"/>
<ellipse rx="8.85868" ry="11.6027" transform="matrix(-0.978754 -0.205037 -0.205037 0.978754 971.05 252.173)" fill="#0A5D69"/>
<path d="M983.5 261C984.233 264.72 991 266.5 992 266.5C992.999 266.5 999.484 260.889 997.5 257C995.5 253.5 983 256.5 983.5 261Z" fill="#0A5D69"/>
<ellipse cx="973.5" cy="250" rx="2.5" ry="3" fill="#F3F6F7"/>
<ellipse cx="1000.5" cy="242" rx="2.5" ry="3" fill="#F3F6F7"/>
<path d="M1060.18 122H1049.68L1054.18 166L1055.18 201H1067.18L1062.18 166L1060.18 122Z" fill="#216E7A"/>
<path d="M1065.73 207H1057.29C1056.7 207 1056.24 207.512 1056.3 208.102L1060.68 251L1061.66 285.029C1061.67 285.57 1062.11 286 1062.66 286H1072.53C1073.14 286 1073.61 285.461 1073.52 284.859L1068.68 251L1066.73 207.955C1066.7 207.421 1066.26 207 1065.73 207Z" fill="#216E7A"/>
<path d="M1086.16 237L1076.54 237C1075.95 237 1075.49 237.505 1075.54 238.091L1077.62 260.852L1077.62 281.387C1077.62 281.982 1078.13 282.445 1078.72 282.382L1088.98 281.286C1089.55 281.225 1089.95 280.698 1089.86 280.132L1086.7 260.59C1086.69 260.53 1086.68 260.47 1086.69 260.409L1087.16 238.021C1087.17 237.461 1086.72 237 1086.16 237Z" fill="#216E7A"/>
<path d="M1072.23 292H1063.79C1063.2 292 1062.74 292.512 1062.8 293.102L1067.17 335.917C1067.18 335.972 1067.18 336.028 1067.18 336.083L1066.25 350.436C1066.21 351.012 1066.67 351.5 1067.25 351.5H1076.97C1077.6 351.5 1078.07 350.927 1077.95 350.31L1075.2 336.072C1075.19 336.024 1075.18 335.976 1075.18 335.927L1073.23 292.955C1073.2 292.421 1072.76 292 1072.23 292Z" fill="#216E7A"/>
<path d="M1043.88 310.387C1049.7 306.918 1058.04 295.294 1058.65 286.498C1058.69 285.947 1058.24 285.602 1057.78 285.905C1054.15 288.286 1042.94 300.667 1042.64 309.656C1042.62 310.327 1043.31 310.731 1043.88 310.387Z" fill="#216E7A"/>
<path d="M1040 277.18C1042.14 283.385 1050.42 284.413 1056.19 284.159C1056.56 284.143 1056.92 283.907 1056.9 283.534C1056.75 280.604 1047.19 276.553 1040.9 276.052C1040.27 276.001 1039.8 276.583 1040 277.18Z" fill="#216E7A"/>
<path d="M1072.49 224.495C1079.74 222.936 1092.07 213.974 1094.98 205.549C1095.16 205.027 1094.83 204.558 1094.29 204.696C1089.83 205.846 1074.05 214.745 1071.51 223.456C1071.32 224.078 1071.85 224.631 1072.49 224.495Z" fill="#216E7A"/>
<path d="M1172.64 251.3C1168.26 257.293 1155.06 264.912 1146.17 264.142C1145.62 264.095 1145.33 263.597 1145.68 263.165C1148.54 259.558 1163.09 248.759 1172.09 249.981C1172.73 250.068 1173.02 250.777 1172.64 251.3Z" fill="#216E7A"/>
<path d="M1185.27 146.924C1177.47 153.939 1156.46 160.355 1145.1 155.976C1144.59 155.777 1144.41 155.207 1144.83 154.845C1149.28 150.987 1173.8 140.189 1185.07 145.486C1185.64 145.756 1185.74 146.5 1185.27 146.924Z" fill="#216E7A"/>
<path d="M1152.92 124.27C1153.43 132.477 1147.6 148.124 1139.67 153.172C1139.2 153.469 1138.66 153.26 1138.64 152.708C1138.51 147.772 1143.31 128.223 1151.68 123.573C1152.23 123.265 1152.88 123.637 1152.92 124.27Z" fill="#216E7A"/>
<path d="M1167.73 178.907C1163.99 170.992 1151.62 159.814 1143.18 159.757C1142.63 159.753 1142.27 160.234 1142.52 160.726C1144.86 165.3 1158.53 180.753 1167.07 180.114C1167.67 180.07 1167.99 179.448 1167.73 178.907Z" fill="#216E7A"/>
<path d="M1107.94 120.602L1097.46 120L1099.43 164.186L1098.42 199.185L1110.4 199.874L1107.42 164.644L1107.94 120.602Z" fill="#216E7A"/>
<path d="M1138.63 92.6967L1128.27 91L1125.6 135.149L1120.93 169.851L1132.77 171.79L1133.5 136.442L1138.63 92.6967Z" fill="#216E7A"/>
<path d="M1150.57 185.529L1137.03 183L1133.38 227.111L1127.15 261.577L1142.63 264.468L1143.7 229.038L1150.57 185.529Z" fill="#216E7A"/>
<path d="M1108.61 205.78L1100.18 205.296C1099.59 205.262 1099.1 205.747 1099.13 206.339L1101.05 249.419L1100.07 283.447C1100.05 283.988 1100.47 284.443 1101.01 284.474L1110.87 285.04C1111.47 285.075 1111.97 284.564 1111.92 283.958L1109.03 249.877L1109.55 206.791C1109.55 206.256 1109.14 205.811 1108.61 205.78Z" fill="#216E7A"/>
<path d="M1130.37 177.476L1122.04 176.112C1121.46 176.017 1120.92 176.447 1120.88 177.039L1118.28 220.082L1113.74 253.821C1113.67 254.357 1114.04 254.853 1114.57 254.941L1124.32 256.537C1124.92 256.635 1125.46 256.179 1125.48 255.57L1126.17 221.375L1131.2 178.579C1131.26 178.048 1130.9 177.562 1130.37 177.476Z" fill="#216E7A"/>
<path d="M1139.77 270.042L1128.28 267.895C1127.68 267.784 1127.11 268.219 1127.06 268.819L1123.5 311.796L1117.36 348.121C1117.26 348.683 1117.66 349.196 1118.23 349.247L1131.11 350.403C1131.69 350.455 1132.21 350.007 1132.23 349.428L1133.82 313.723L1140.54 271.144C1140.63 270.622 1140.29 270.139 1139.77 270.042Z" fill="#216E7A"/>
<path d="M1110.23 291.014L1101.8 290.529C1101.21 290.495 1100.71 290.979 1100.74 291.571L1102.18 324.928C1102.18 324.976 1102.18 325.024 1102.18 325.072L1099.79 348.501C1099.73 349.052 1100.13 349.544 1100.68 349.598L1113.49 350.852C1114.13 350.915 1114.67 350.366 1114.58 349.728L1111.27 324.325L1111.18 292.009C1111.18 291.48 1110.76 291.044 1110.23 291.014Z" fill="#216E7A"/>
<path d="M1082.52 177.262C1079.88 185.096 1088.07 193.718 1094.39 198.704C1094.68 198.93 1095.09 198.996 1095.33 198.722C1097.68 196.043 1090.34 183.047 1083.96 176.932C1083.49 176.478 1082.72 176.641 1082.52 177.262Z" fill="#216E7A"/>
<path d="M1160.78 290.041C1153.2 289.513 1148.24 279.26 1145.84 271.912C1145.73 271.569 1145.81 271.158 1146.15 271.044C1149.25 270.005 1158.23 281.015 1161.62 288.812C1161.88 289.421 1161.45 290.088 1160.78 290.041Z" fill="#216E7A"/>
<path d="M1088.52 286.459L1078.9 286.459C1078.31 286.459 1077.85 286.964 1077.9 287.549L1079.98 310.311L1079.98 349.887C1079.98 350.482 1080.49 350.945 1081.08 350.882L1091.41 349.778C1091.95 349.72 1092.35 349.241 1092.3 348.7L1089.04 309.959L1089.52 287.48C1089.53 286.919 1089.08 286.459 1088.52 286.459Z" fill="#216E7A"/>
<circle cx="1680.07" cy="272.214" r="65.0658" fill="#216E7A"/>
<circle cx="1680.07" cy="227.066" r="65.0658" fill="#216E7A"/>
<rect x="1669.47" y="273.974" width="15.1316" height="118.026" rx="7.56579" fill="#1D6874"/>
<circle cx="285.066" cy="156.214" r="65.0658" fill="#216E7A"/>
<circle cx="285.066" cy="111.066" r="65.0658" fill="#216E7A"/>
<rect x="274.474" y="157.974" width="15.1316" height="118.026" rx="7.56579" fill="#1D6874"/>
<circle cx="839.697" cy="181.712" r="44.6974" fill="#216E7A"/>
<circle cx="839.697" cy="150.697" r="44.6974" fill="#216E7A"/>
<rect x="832.421" y="182.921" width="10.3947" height="81.0789" rx="5.19737" fill="#1D6874"/>
</svg>
