<svg width="320" height="291" viewBox="0 0 320 291" fill="none" xmlns="http://www.w3.org/2000/svg">
<path d="M-288.808 79.7306L-353.231 142.148C-357.558 146.341 -360 152.108 -360 158.133V224.142C-360 236.434 -350.036 246.398 -337.744 246.398H-298.977H-111.565H54.6776H182.618C185.142 246.398 187.647 246.828 190.027 247.668L261.888 273.038C264.268 273.879 266.773 274.308 269.297 274.308H372.968C375.265 274.308 377.548 273.952 379.736 273.254L514.594 230.204C516.782 229.505 519.065 229.15 521.362 229.15H662.673H718.74C726.433 229.15 733.58 225.177 737.642 218.643L757.246 187.107C759.438 183.58 760.6 179.51 760.6 175.357V103.636C760.6 91.344 750.636 81.3795 738.344 81.3795H730.497C725.728 81.3795 721.086 79.8481 717.254 77.0107L642.242 21.4755C638.067 18.3843 632.942 16.8511 627.755 17.1416L526.621 22.8043C521.013 23.1184 515.731 25.5415 511.834 29.5876L448.183 95.6839C443.988 100.04 438.2 102.502 432.152 102.502H383.479C378.894 102.502 374.422 101.086 370.672 98.4482L318.399 61.6706C314.65 59.0326 310.177 57.6168 305.593 57.6168H194.39C189.244 57.6168 184.257 59.4003 180.277 62.6637L102.438 126.498C98.4588 129.762 93.4715 131.545 88.3251 131.545H-11.425C-16.2303 131.545 -20.9066 129.99 -24.7548 127.112L-90.5648 77.892C-94.413 75.0139 -99.0893 73.4586 -103.895 73.4586H-273.321C-279.102 73.4586 -284.656 75.708 -288.808 79.7306Z" fill="#2A8086"/>
<path d="M-288.808 96.4227L-353.231 158.841C-357.558 163.033 -360 168.8 -360 174.825V240.834C-360 253.126 -350.036 263.09 -337.744 263.09H-298.977H-111.565H54.6776H182.618C185.142 263.09 187.647 263.52 190.027 264.36L261.888 289.73C264.268 290.571 266.773 291 269.297 291H372.968C375.265 291 377.548 290.644 379.736 289.946L514.594 246.896C516.782 246.197 519.065 245.842 521.362 245.842H662.673H719.603C727.431 245.842 734.684 241.729 738.703 235.011L757.444 203.68C759.51 200.227 760.6 196.278 760.6 192.255V120.328C760.6 108.036 750.636 98.0717 738.344 98.0717H730.497C725.728 98.0717 721.086 96.5402 717.254 93.7029L642.242 38.1677C638.067 35.0765 632.942 33.5433 627.755 33.8337L526.621 39.4965C521.013 39.8105 515.731 42.2336 511.834 46.2797L448.183 112.376C443.988 116.733 438.2 119.194 432.152 119.194H383.479C378.894 119.194 374.422 117.778 370.672 115.14L318.399 78.3627C314.65 75.7247 310.177 74.3089 305.593 74.3089H194.39C189.244 74.3089 184.257 76.0924 180.277 79.3559L102.438 143.19C98.4588 146.454 93.4715 148.237 88.3251 148.237H-11.425C-16.2303 148.237 -20.9066 146.682 -24.7548 143.804L-90.5648 94.5841C-94.413 91.706 -99.0893 90.1507 -103.895 90.1507H-273.321C-279.102 90.1507 -284.656 92.4001 -288.808 96.4227Z" fill="#2A808D" fill-opacity="0.3"/>
<path d="M-288.682 58.4132L-352.628 115.935C-357.32 120.156 -360 126.171 -360 132.482V191.01C-360 203.302 -350.036 213.266 -337.744 213.266H-303.358C-300.465 213.266 -297.6 212.702 -294.923 211.606L-189.307 168.351C-186.63 167.255 -183.765 166.691 -180.872 166.691H-13.8682C-8.98849 166.691 -4.24399 168.294 -0.365021 171.255L48.6974 208.702C52.5764 211.662 57.3209 213.266 62.2006 213.266H180.362C184.336 213.266 188.237 214.33 191.66 216.347L260.255 256.761C263.678 258.778 267.579 259.841 271.552 259.841H372.012C374.932 259.841 377.822 259.267 380.52 258.151L441.617 232.877L515.169 213.967C516.98 213.501 518.842 213.266 520.711 213.266H628.87C633.371 213.266 637.767 211.901 641.477 209.351L717.459 157.123C721.168 154.573 725.564 153.208 730.066 153.208H738.344C750.636 153.208 760.6 143.244 760.6 130.952V82.3139C760.6 70.0221 750.636 60.0577 738.344 60.0577H730.066C725.564 60.0577 721.168 58.6926 717.459 56.1426L642.003 4.277C637.968 1.5033 633.131 0.137777 628.241 0.391987L526.201 5.69659C520.845 5.97502 515.77 8.178 511.909 11.9003L448.083 73.4346C443.935 77.4337 438.398 79.6683 432.636 79.6683H383.059C378.736 79.6683 374.507 78.4094 370.888 76.0453L318.184 41.6187C314.565 39.2546 310.335 37.9957 306.013 37.9957H193.94C189.069 37.9957 184.333 39.5935 180.457 42.5442L102.258 102.084C98.3827 105.035 93.6463 106.633 88.7755 106.633H-11.8577C-16.3954 106.633 -20.8246 105.246 -24.5518 102.658L-90.7679 56.6787C-94.4951 54.0907 -98.9243 52.7037 -103.462 52.7037H-273.797C-279.294 52.7037 -284.596 54.7374 -288.682 58.4132Z" fill="#2A808D" fill-opacity="0.3"/>
<path d="M253.998 186.117C254.688 175.911 245.604 160.798 242.591 160.245C242.591 160.245 225.899 186.117 218.109 201.697C218.354 204.114 219.368 205.392 219.222 207.817C219.072 210.321 216.076 211.735 217.275 213.938C218.59 216.354 224.23 215.051 224.23 215.051C232.019 213.66 232.576 202.253 233.41 201.975C234.802 203.923 236.272 210.043 235.636 212.269C235.08 214.216 233.334 215.18 233.967 216.998C234.671 219.022 236.749 219.78 238.696 219.78C243.426 220.058 247.321 216.442 249.825 213.103C254.554 205.87 254.554 193.351 253.998 186.117Z" fill="#0A5D69"/>
<rect x="182.496" y="151.342" width="68.4379" height="51.1893" rx="25.5946" fill="#F3F6F7"/>
<path d="M208.883 201.697C214.169 186.118 210.831 159.41 198.312 153.568C193.674 153.755 186.627 158.019 186.627 158.019C186.627 158.019 170.505 177.449 168.822 192.516C169.1 198.359 172.439 207.817 171.326 215.885C169.935 217.215 169.657 217.554 168.822 218.946C167.709 221.171 170.769 222.562 172.995 222.562C175.777 222.562 179.325 221.538 182.176 218.946C185.864 215.592 185.514 211.156 186.627 206.983C188.574 209.487 188.296 218.946 186.905 221.171C184.958 224.51 185.236 225.622 186.627 227.013C190.522 229.146 198.033 227.013 201.372 222.562C206.101 215.051 206.499 210.321 208.883 201.697Z" fill="#0A5D69"/>
<circle cx="167.75" cy="152.733" r="7.51147" fill="#0A5D69"/>
<circle cx="190.562" cy="149.395" r="7.51147" fill="#0A5D69"/>
<rect x="160.238" y="146.891" width="43.956" height="39.5048" rx="19.7524" fill="#F3F6F7"/>
<ellipse cx="190.636" cy="163.362" rx="4.92901" ry="6.4558" transform="rotate(-31.8762 190.636 163.362)" fill="#0A5D69"/>
<ellipse rx="4.92901" ry="6.4558" transform="matrix(-0.978754 -0.205037 -0.205037 0.978754 171.952 168.687)" fill="#0A5D69"/>
<path d="M178.877 173.598C179.285 175.668 183.05 176.659 183.607 176.659C184.163 176.659 187.771 173.537 186.667 171.373C185.554 169.425 178.599 171.095 178.877 173.598Z" fill="#0A5D69"/>
<ellipse cx="173.315" cy="167.478" rx="1.39101" ry="1.66922" fill="#F3F6F7"/>
<ellipse cx="188.338" cy="163.027" rx="1.39101" ry="1.66922" fill="#F3F6F7"/>
<path d="M221.545 96.2581H215.703L218.207 120.74L218.763 140.214H225.44L222.658 120.74L221.545 96.2581Z" fill="#216E7A"/>
<path d="M224.631 143.552H219.937C219.607 143.552 219.349 143.838 219.383 144.166L221.824 168.034L222.365 186.968C222.374 187.269 222.62 187.509 222.921 187.509H228.416C228.754 187.509 229.015 187.209 228.967 186.873L226.275 168.034L225.187 144.084C225.173 143.786 224.928 143.552 224.631 143.552Z" fill="#216E7A"/>
<path d="M236 160.245L230.646 160.245C230.318 160.245 230.062 160.526 230.092 160.852L231.245 173.516L231.245 184.942C231.245 185.273 231.532 185.53 231.861 185.495L237.566 184.886C237.884 184.852 238.108 184.559 238.057 184.244L236.299 173.37C236.293 173.337 236.291 173.303 236.292 173.27L236.557 160.813C236.563 160.501 236.312 160.245 236 160.245Z" fill="#216E7A"/>
<path d="M228.248 190.847H223.554C223.224 190.847 222.967 191.132 223 191.46L225.437 215.283C225.44 215.313 225.44 215.344 225.438 215.375L224.923 223.361C224.902 223.682 225.157 223.953 225.478 223.953H230.887C231.237 223.953 231.5 223.634 231.434 223.291L229.9 215.369C229.895 215.342 229.892 215.315 229.891 215.288L228.804 191.378C228.79 191.081 228.546 190.847 228.248 190.847Z" fill="#216E7A"/>
<path d="M212.475 201.078C215.713 199.147 220.353 192.68 220.691 187.786C220.712 187.479 220.465 187.287 220.208 187.456C218.189 188.781 211.951 195.67 211.785 200.671C211.772 201.044 212.155 201.269 212.475 201.078Z" fill="#216E7A"/>
<path d="M210.317 182.601C211.508 186.053 216.115 186.625 219.324 186.484C219.531 186.475 219.733 186.344 219.722 186.137C219.639 184.506 214.316 182.252 210.818 181.973C210.468 181.945 210.203 182.269 210.317 182.601Z" fill="#216E7A"/>
<path d="M228.392 153.287C232.429 152.42 239.29 147.433 240.91 142.745C241.01 142.454 240.823 142.194 240.526 142.27C238.044 142.91 229.261 147.862 227.846 152.709C227.745 153.055 228.04 153.363 228.392 153.287Z" fill="#216E7A"/>
<path d="M284.114 168.201C281.68 171.536 274.333 175.775 269.391 175.347C269.085 175.32 268.923 175.043 269.114 174.803C270.708 172.796 278.805 166.788 283.808 167.468C284.165 167.516 284.327 167.91 284.114 168.201Z" fill="#216E7A"/>
<path d="M291.144 110.126C286.802 114.029 275.115 117.599 268.794 115.162C268.507 115.052 268.411 114.735 268.643 114.533C271.116 112.387 284.763 106.379 291.031 109.326C291.351 109.476 291.407 109.89 291.144 110.126Z" fill="#216E7A"/>
<path d="M273.144 97.5211C273.429 102.088 270.184 110.794 265.773 113.602C265.513 113.768 265.209 113.651 265.201 113.344C265.125 110.598 267.799 99.7205 272.453 97.1336C272.761 96.9622 273.122 97.169 273.144 97.5211Z" fill="#216E7A"/>
<path d="M281.386 127.922C279.302 123.518 272.423 117.298 267.725 117.266C267.418 117.264 267.22 117.532 267.36 117.805C268.66 120.35 276.266 128.949 281.019 128.593C281.35 128.568 281.528 128.222 281.386 127.922Z" fill="#216E7A"/>
<path d="M248.122 95.4803L242.289 95.1453L243.385 119.73L242.824 139.204L249.489 139.587L247.829 119.986L248.122 95.4803Z" fill="#216E7A"/>
<path d="M265.195 79.9536L259.43 79.0095L257.945 103.574L255.347 122.882L261.936 123.961L262.337 104.293L265.195 79.9536Z" fill="#216E7A"/>
<path d="M271.836 131.606L264.303 130.199L262.273 154.742L258.807 173.919L267.417 175.528L268.012 155.814L271.836 131.606Z" fill="#216E7A"/>
<path d="M248.487 142.874L243.801 142.605C243.472 142.586 243.198 142.856 243.213 143.185L244.281 167.154L243.736 186.088C243.727 186.389 243.959 186.642 244.26 186.66L249.745 186.975C250.084 186.994 250.36 186.71 250.332 186.372L248.725 167.41L249.012 143.436C249.015 143.139 248.784 142.891 248.487 142.874Z" fill="#216E7A"/>
<path d="M260.596 127.125L255.964 126.366C255.638 126.313 255.338 126.553 255.318 126.882L253.87 150.832L251.345 169.604C251.305 169.902 251.509 170.178 251.806 170.227L257.229 171.115C257.563 171.17 257.868 170.916 257.875 170.577L258.263 151.551L261.059 127.739C261.094 127.444 260.89 127.173 260.596 127.125Z" fill="#216E7A"/>
<path d="M265.825 178.629L259.432 177.435C259.101 177.373 258.782 177.615 258.754 177.949L256.777 201.861L253.357 222.073C253.304 222.386 253.525 222.671 253.843 222.7L261.007 223.343C261.33 223.372 261.618 223.122 261.633 222.8L262.516 202.934L266.258 179.242C266.304 178.952 266.114 178.683 265.825 178.629Z" fill="#216E7A"/>
<path d="M249.394 190.298L244.698 190.029C244.369 190.01 244.096 190.279 244.111 190.608L244.912 209.168C244.913 209.195 244.912 209.222 244.91 209.249L243.579 222.284C243.548 222.591 243.772 222.865 244.079 222.895L251.207 223.593C251.563 223.628 251.859 223.322 251.813 222.967L249.968 208.833L249.918 190.852C249.917 190.558 249.687 190.315 249.394 190.298Z" fill="#216E7A"/>
<path d="M233.97 127.006C232.502 131.365 237.059 136.162 240.577 138.937C240.736 139.062 240.966 139.099 241.099 138.947C242.41 137.456 238.322 130.225 234.776 126.822C234.513 126.57 234.087 126.661 233.97 127.006Z" fill="#216E7A"/>
<path d="M277.52 189.757C273.3 189.463 270.539 183.758 269.207 179.67C269.145 179.479 269.188 179.251 269.379 179.187C271.101 178.609 276.099 184.735 277.982 189.073C278.13 189.412 277.889 189.783 277.52 189.757Z" fill="#216E7A"/>
<path d="M237.313 187.764L231.958 187.764C231.631 187.764 231.374 188.045 231.404 188.371L232.558 201.035L232.558 223.056C232.558 223.387 232.845 223.644 233.173 223.609L238.922 222.995C239.223 222.963 239.443 222.696 239.417 222.395L237.603 200.839L237.869 188.332C237.876 188.02 237.625 187.764 237.313 187.764Z" fill="#216E7A"/>
<circle cx="15.9617" cy="111.121" r="24.8699" fill="#216E7A"/>
<circle cx="15.9617" cy="93.8641" r="24.8699" fill="#216E7A"/>
<rect x="11.9141" y="111.794" width="5.78369" height="45.1128" rx="2.89184" fill="#1D6874"/>
</svg>
