<svg width="640" height="291" viewBox="0 0 640 291" fill="none" xmlns="http://www.w3.org/2000/svg">
<path d="M-54.808 79.7306L-119.231 142.149C-123.558 146.341 -126 152.108 -126 158.133V224.142C-126 236.434 -116.036 246.398 -103.744 246.398H-64.9772H122.435H288.678H416.618C419.142 246.398 421.647 246.828 424.027 247.668L495.888 273.038C498.268 273.879 500.773 274.308 503.297 274.308H606.968C609.265 274.308 611.548 273.952 613.736 273.254L748.594 230.204C750.782 229.505 753.065 229.15 755.362 229.15H896.673H952.74C960.433 229.15 967.58 225.177 971.642 218.644L991.246 187.107C993.438 183.58 994.6 179.51 994.6 175.357V103.636C994.6 91.344 984.636 81.3795 972.344 81.3795H964.497C959.728 81.3795 955.086 79.8481 951.254 77.0108L876.242 21.4756C872.067 18.3844 866.942 16.8512 861.755 17.1416L760.621 22.8044C755.013 23.1184 749.731 25.5415 745.834 29.5876L682.183 95.6839C677.988 100.04 672.2 102.502 666.152 102.502H617.479C612.894 102.502 608.422 101.086 604.672 98.4482L552.399 61.6706C548.65 59.0326 544.177 57.6168 539.593 57.6168H428.39C423.244 57.6168 418.257 59.4003 414.277 62.6638L336.438 126.498C332.459 129.762 327.471 131.545 322.325 131.545H222.575C217.77 131.545 213.093 129.99 209.245 127.112L143.435 77.892C139.587 75.0139 134.911 73.4586 130.105 73.4586H-39.3212C-45.1021 73.4586 -50.6562 75.708 -54.808 79.7306Z" fill="#2A8086"/>
<path d="M-54.808 96.4228L-119.231 158.841C-123.558 163.033 -126 168.8 -126 174.825V240.834C-126 253.126 -116.036 263.091 -103.744 263.091H-64.9772H122.435H288.678H416.618C419.142 263.091 421.647 263.52 424.027 264.36L495.888 289.73C498.268 290.571 500.773 291 503.297 291H606.968C609.265 291 611.548 290.644 613.736 289.946L748.594 246.896C750.782 246.198 753.065 245.842 755.362 245.842H896.673H953.603C961.431 245.842 968.684 241.729 972.703 235.011L991.444 203.68C993.51 200.227 994.6 196.278 994.6 192.255V120.328C994.6 108.036 984.636 98.0717 972.344 98.0717H964.497C959.728 98.0717 955.086 96.5403 951.254 93.7029L876.242 38.1677C872.067 35.0765 866.942 33.5433 861.755 33.8338L760.621 39.4965C755.013 39.8106 749.731 42.2337 745.834 46.2798L682.183 112.376C677.988 116.733 672.2 119.194 666.152 119.194H617.479C612.894 119.194 608.422 117.778 604.672 115.14L552.399 78.3628C548.65 75.7248 544.177 74.309 539.593 74.309H428.39C423.244 74.309 418.257 76.0925 414.277 79.3559L336.438 143.191C332.459 146.454 327.471 148.237 322.325 148.237H222.575C217.77 148.237 213.093 146.682 209.245 143.804L143.435 94.5842C139.587 91.7061 134.911 90.1508 130.105 90.1508H-39.3212C-45.1021 90.1508 -50.6562 92.4002 -54.808 96.4228Z" fill="#2A808D" fill-opacity="0.3"/>
<path d="M-54.6818 58.4132L-118.628 115.935C-123.32 120.156 -126 126.171 -126 132.482V191.01C-126 203.302 -116.036 213.266 -103.744 213.266H-69.3581C-66.4653 213.266 -63.6002 212.702 -60.9231 211.606L44.693 168.351C47.37 167.255 50.2351 166.691 53.128 166.691H220.132C225.012 166.691 229.756 168.294 233.635 171.255L282.697 208.702C286.576 211.662 291.321 213.266 296.201 213.266H414.362C418.336 213.266 422.237 214.33 425.66 216.347L494.255 256.761C497.678 258.778 501.579 259.841 505.552 259.841H606.012C608.932 259.841 611.822 259.267 614.52 258.151L675.617 232.877L749.169 213.967C750.98 213.501 752.842 213.266 754.711 213.266H862.87C867.371 213.266 871.767 211.901 875.477 209.351L951.459 157.123C955.168 154.573 959.564 153.208 964.066 153.208H972.344C984.636 153.208 994.6 143.244 994.6 130.952V82.3139C994.6 70.0221 984.636 60.0577 972.344 60.0577H964.066C959.564 60.0577 955.168 58.6926 951.459 56.1426L876.003 4.277C871.968 1.5033 867.131 0.137777 862.241 0.391987L760.201 5.69659C754.845 5.97502 749.77 8.178 745.909 11.9003L682.083 73.4346C677.935 77.4337 672.398 79.6683 666.636 79.6683H617.059C612.736 79.6683 608.507 78.4094 604.888 76.0453L552.184 41.6187C548.565 39.2546 544.335 37.9957 540.013 37.9957H427.94C423.069 37.9957 418.333 39.5935 414.457 42.5442L336.258 102.084C332.383 105.035 327.646 106.633 322.776 106.633H222.142C217.605 106.633 213.175 105.246 209.448 102.658L143.232 56.6787C139.505 54.0907 135.076 52.7037 130.538 52.7037H-39.7974C-45.2936 52.7037 -50.5955 54.7374 -54.6818 58.4132Z" fill="#2A808D" fill-opacity="0.3"/>
<path d="M487.998 186.118C488.688 175.911 479.604 160.798 476.591 160.245C476.591 160.245 459.899 186.118 452.109 201.697C452.354 204.114 453.368 205.392 453.222 207.817C453.072 210.321 450.076 211.735 451.275 213.938C452.59 216.354 458.23 215.051 458.23 215.051C466.019 213.66 466.576 202.253 467.41 201.975C468.802 203.923 470.272 210.043 469.636 212.269C469.08 214.216 467.334 215.18 467.967 216.998C468.671 219.022 470.749 219.78 472.696 219.78C477.426 220.058 481.321 216.442 483.825 213.103C488.554 205.87 488.554 193.351 487.998 186.118Z" fill="#0A5D69"/>
<rect x="416.496" y="151.342" width="68.4379" height="51.1893" rx="25.5946" fill="#F3F6F7"/>
<path d="M442.883 201.697C448.169 186.118 444.831 159.41 432.312 153.568C427.674 153.755 420.627 158.019 420.627 158.019C420.627 158.019 404.505 177.449 402.822 192.516C403.1 198.359 406.439 207.817 405.326 215.885C403.935 217.215 403.657 217.554 402.822 218.946C401.709 221.171 404.769 222.562 406.995 222.562C409.777 222.562 413.325 221.538 416.176 218.946C419.864 215.592 419.514 211.156 420.627 206.983C422.574 209.487 422.296 218.946 420.905 221.171C418.958 224.51 419.236 225.622 420.627 227.013C424.522 229.146 432.033 227.013 435.372 222.562C440.101 215.051 440.499 210.321 442.883 201.697Z" fill="#0A5D69"/>
<circle cx="401.75" cy="152.733" r="7.51147" fill="#0A5D69"/>
<circle cx="424.562" cy="149.395" r="7.51147" fill="#0A5D69"/>
<rect x="394.238" y="146.891" width="43.956" height="39.5048" rx="19.7524" fill="#F3F6F7"/>
<ellipse cx="424.636" cy="163.362" rx="4.92901" ry="6.4558" transform="rotate(-31.8762 424.636 163.362)" fill="#0A5D69"/>
<ellipse rx="4.92901" ry="6.4558" transform="matrix(-0.978754 -0.205037 -0.205037 0.978754 405.952 168.687)" fill="#0A5D69"/>
<path d="M412.877 173.598C413.285 175.668 417.05 176.659 417.607 176.659C418.163 176.659 421.771 173.537 420.667 171.373C419.554 169.425 412.599 171.095 412.877 173.598Z" fill="#0A5D69"/>
<ellipse cx="407.315" cy="167.478" rx="1.39101" ry="1.66922" fill="#F3F6F7"/>
<ellipse cx="422.338" cy="163.027" rx="1.39101" ry="1.66922" fill="#F3F6F7"/>
<path d="M455.545 96.2581H449.703L452.207 120.74L452.763 140.214H459.44L456.658 120.74L455.545 96.2581Z" fill="#216E7A"/>
<path d="M458.631 143.553H453.937C453.607 143.553 453.349 143.838 453.383 144.166L455.824 168.034L456.365 186.968C456.374 187.269 456.62 187.509 456.921 187.509H462.416C462.754 187.509 463.015 187.209 462.967 186.874L460.275 168.034L459.187 144.084C459.173 143.787 458.928 143.553 458.631 143.553Z" fill="#216E7A"/>
<path d="M470 160.245L464.646 160.245C464.318 160.245 464.062 160.526 464.092 160.852L465.245 173.516L465.245 184.942C465.245 185.273 465.532 185.531 465.861 185.495L471.566 184.886C471.884 184.852 472.108 184.559 472.057 184.244L470.299 173.37C470.293 173.337 470.291 173.303 470.292 173.27L470.557 160.813C470.563 160.501 470.312 160.245 470 160.245Z" fill="#216E7A"/>
<path d="M462.248 190.847H457.554C457.224 190.847 456.967 191.132 457 191.46L459.437 215.283C459.44 215.313 459.44 215.344 459.438 215.375L458.923 223.361C458.902 223.682 459.157 223.953 459.478 223.953H464.887C465.237 223.953 465.5 223.634 465.434 223.291L463.9 215.369C463.895 215.342 463.892 215.315 463.891 215.288L462.804 191.378C462.79 191.081 462.546 190.847 462.248 190.847Z" fill="#216E7A"/>
<path d="M446.475 201.078C449.713 199.148 454.353 192.68 454.691 187.786C454.712 187.479 454.465 187.287 454.208 187.456C452.189 188.781 445.951 195.67 445.785 200.671C445.772 201.044 446.155 201.269 446.475 201.078Z" fill="#216E7A"/>
<path d="M444.317 182.601C445.508 186.053 450.115 186.626 453.324 186.485C453.531 186.475 453.733 186.344 453.722 186.137C453.639 184.506 448.316 182.253 444.818 181.973C444.468 181.945 444.203 182.269 444.317 182.601Z" fill="#216E7A"/>
<path d="M462.392 153.287C466.429 152.42 473.29 147.433 474.91 142.745C475.01 142.454 474.823 142.194 474.526 142.27C472.044 142.91 463.261 147.862 461.846 152.709C461.745 153.055 462.04 153.363 462.392 153.287Z" fill="#216E7A"/>
<path d="M518.114 168.201C515.68 171.536 508.333 175.775 503.391 175.347C503.085 175.32 502.923 175.044 503.114 174.803C504.708 172.796 512.805 166.788 517.808 167.468C518.165 167.516 518.327 167.91 518.114 168.201Z" fill="#216E7A"/>
<path d="M525.144 110.126C520.802 114.029 509.115 117.599 502.794 115.162C502.507 115.052 502.411 114.735 502.643 114.533C505.116 112.387 518.763 106.379 525.031 109.326C525.351 109.476 525.407 109.89 525.144 110.126Z" fill="#216E7A"/>
<path d="M507.144 97.5211C507.429 102.088 504.184 110.794 499.773 113.602C499.513 113.768 499.209 113.651 499.201 113.344C499.125 110.598 501.799 99.7205 506.453 97.1336C506.761 96.9622 507.122 97.169 507.144 97.5211Z" fill="#216E7A"/>
<path d="M515.386 127.922C513.302 123.518 506.423 117.298 501.725 117.266C501.418 117.264 501.22 117.532 501.36 117.805C502.66 120.35 510.266 128.949 515.019 128.593C515.35 128.568 515.528 128.222 515.386 127.922Z" fill="#216E7A"/>
<path d="M482.122 95.4804L476.289 95.1453L477.385 119.73L476.824 139.205L483.489 139.587L481.829 119.986L482.122 95.4804Z" fill="#216E7A"/>
<path d="M499.195 79.9536L493.43 79.0096L491.945 103.574L489.347 122.882L495.936 123.961L496.337 104.294L499.195 79.9536Z" fill="#216E7A"/>
<path d="M505.836 131.606L498.303 130.199L496.273 154.742L492.807 173.92L501.417 175.528L502.012 155.815L505.836 131.606Z" fill="#216E7A"/>
<path d="M482.487 142.874L477.801 142.605C477.472 142.586 477.198 142.856 477.213 143.185L478.281 167.154L477.736 186.088C477.727 186.389 477.959 186.642 478.26 186.66L483.745 186.975C484.084 186.994 484.36 186.71 484.332 186.372L482.725 167.41L483.012 143.436C483.015 143.139 482.784 142.891 482.487 142.874Z" fill="#216E7A"/>
<path d="M494.596 127.125L489.964 126.366C489.638 126.313 489.338 126.553 489.318 126.882L487.87 150.832L485.345 169.604C485.305 169.902 485.509 170.178 485.806 170.227L491.229 171.115C491.563 171.17 491.868 170.916 491.875 170.577L492.263 151.551L495.059 127.739C495.094 127.444 494.89 127.173 494.596 127.125Z" fill="#216E7A"/>
<path d="M499.825 178.629L493.432 177.435C493.101 177.373 492.782 177.615 492.754 177.949L490.777 201.861L487.357 222.073C487.304 222.386 487.525 222.671 487.843 222.7L495.007 223.343C495.33 223.372 495.618 223.122 495.633 222.8L496.516 202.934L500.258 179.242C500.304 178.952 500.114 178.683 499.825 178.629Z" fill="#216E7A"/>
<path d="M483.394 190.298L478.698 190.029C478.369 190.01 478.096 190.279 478.111 190.608L478.912 209.168C478.913 209.195 478.912 209.222 478.91 209.249L477.579 222.285C477.548 222.591 477.772 222.865 478.079 222.895L485.207 223.593C485.563 223.628 485.859 223.322 485.813 222.967L483.968 208.833L483.918 190.852C483.917 190.558 483.687 190.315 483.394 190.298Z" fill="#216E7A"/>
<path d="M467.97 127.006C466.502 131.365 471.059 136.162 474.577 138.937C474.736 139.062 474.966 139.099 475.099 138.947C476.41 137.456 472.322 130.225 468.776 126.822C468.513 126.57 468.087 126.661 467.97 127.006Z" fill="#216E7A"/>
<path d="M511.52 189.757C507.3 189.463 504.539 183.759 503.207 179.67C503.145 179.479 503.188 179.251 503.379 179.187C505.101 178.609 510.099 184.735 511.982 189.073C512.13 189.412 511.889 189.783 511.52 189.757Z" fill="#216E7A"/>
<path d="M471.313 187.764L465.958 187.764C465.631 187.764 465.374 188.045 465.404 188.371L466.558 201.035L466.558 223.056C466.558 223.387 466.845 223.644 467.173 223.609L472.922 222.995C473.223 222.963 473.443 222.696 473.417 222.395L471.603 200.839L471.869 188.332C471.876 188.02 471.625 187.764 471.313 187.764Z" fill="#216E7A"/>
<circle cx="65.9959" cy="96.9335" r="36.203" fill="#216E7A"/>
<circle cx="65.9959" cy="71.8129" r="36.203" fill="#216E7A"/>
<rect x="60.1035" y="97.9127" width="8.41929" height="65.6705" rx="4.20965" fill="#1D6874"/>
<circle cx="249.962" cy="111.121" r="24.8699" fill="#216E7A"/>
<circle cx="249.962" cy="93.8641" r="24.8699" fill="#216E7A"/>
<rect x="245.914" y="111.794" width="5.78369" height="45.1128" rx="2.89184" fill="#1D6874"/>
</svg>
