<svg width="1200" height="523" viewBox="0 0 1200 523" fill="none" xmlns="http://www.w3.org/2000/svg">
<path d="M106.95 143.296L-8.83377 255.477C-16.6103 263.011 -21 273.376 -21 284.204V402.84C-21 424.931 -3.09142 442.84 19 442.84H88.6733H425.5H724.28H954.221C958.757 442.84 963.26 443.611 967.537 445.121L1096.69 490.718C1100.97 492.228 1105.47 493 1110 493H1296.33C1300.46 493 1304.56 492.361 1308.49 491.106L1550.86 413.734C1554.8 412.479 1558.9 411.84 1563.03 411.84H1817H1917.77C1931.59 411.84 1944.44 404.7 1951.74 392.957L1986.97 336.278C1990.91 329.94 1993 322.625 1993 315.161V186.259C1993 164.168 1975.09 146.259 1953 146.259H1938.9C1930.33 146.259 1921.98 143.507 1915.09 138.408L1780.28 38.5969C1772.78 33.0413 1763.57 30.2857 1754.24 30.8077L1572.48 40.9852C1562.4 41.5495 1552.91 45.9045 1545.9 53.1763L1431.51 171.968C1423.97 179.798 1413.57 184.222 1402.7 184.222H1315.22C1306.98 184.222 1298.94 181.677 1292.2 176.936L1198.25 110.838C1191.52 106.096 1183.48 103.552 1175.24 103.552H975.378C966.129 103.552 957.166 106.757 950.014 112.622L810.117 227.349C802.966 233.214 794.002 236.42 784.753 236.42H605.477C596.84 236.42 588.436 233.625 581.52 228.452L463.243 139.991C456.327 134.819 447.922 132.024 439.286 132.024H134.784C124.394 132.024 114.412 136.066 106.95 143.296Z" fill="#2A8086"/>
<path d="M106.95 173.296L-8.83377 285.477C-16.6103 293.011 -21 303.376 -21 314.204V432.84C-21 454.931 -3.09142 472.84 19 472.84H88.6733H425.5H724.28H954.221C958.757 472.84 963.26 473.611 967.537 475.121L1096.69 520.718C1100.97 522.228 1105.47 523 1110 523H1296.33C1300.46 523 1304.56 522.361 1308.49 521.106L1550.86 443.734C1554.8 442.479 1558.9 441.84 1563.03 441.84H1817H1919.32C1933.39 441.84 1946.42 434.448 1953.64 422.373L1987.33 366.064C1991.04 359.858 1993 352.761 1993 345.53V216.259C1993 194.168 1975.09 176.259 1953 176.259H1938.9C1930.33 176.259 1921.98 173.507 1915.09 168.408L1780.28 68.5969C1772.78 63.0413 1763.57 60.2857 1754.24 60.8077L1572.48 70.9852C1562.4 71.5495 1552.91 75.9045 1545.9 83.1763L1431.51 201.968C1423.97 209.798 1413.57 214.222 1402.7 214.222H1315.22C1306.98 214.222 1298.94 211.677 1292.2 206.936L1198.25 140.838C1191.52 136.096 1183.48 133.552 1175.24 133.552H975.378C966.129 133.552 957.166 136.757 950.014 142.622L810.117 257.349C802.966 263.214 794.002 266.42 784.753 266.42H605.477C596.84 266.42 588.436 263.625 581.52 258.452L463.243 169.991C456.327 164.819 447.922 162.024 439.286 162.024H134.784C124.394 162.024 114.412 166.066 106.95 173.296Z" fill="#2A808D" fill-opacity="0.3"/>
<path d="M107.177 104.983L-7.75101 208.365C-16.1841 215.951 -21 226.761 -21 238.104V343.292C-21 365.384 -3.09142 383.292 19 383.292H80.7997C85.9989 383.292 91.1481 382.279 95.9594 380.308L285.778 302.569C290.589 300.599 295.739 299.585 300.938 299.585H601.086C609.856 299.585 618.383 302.467 625.354 307.788L713.532 375.089C720.503 380.41 729.03 383.292 737.8 383.292H950.167C957.308 383.292 964.319 385.204 970.472 388.829L1093.75 461.463C1099.91 465.088 1106.92 467 1114.06 467H1294.61C1299.86 467 1305.05 465.968 1309.9 463.962L1419.71 418.538L1551.9 384.552C1555.15 383.716 1558.5 383.292 1561.86 383.292H1756.25C1764.34 383.292 1772.24 380.839 1778.9 376.256L1915.46 282.39C1922.13 277.807 1930.03 275.354 1938.12 275.354H1953C1975.09 275.354 1993 257.445 1993 235.354V147.939C1993 125.847 1975.09 107.939 1953 107.939H1938.12C1930.03 107.939 1922.13 105.485 1915.46 100.902L1779.85 7.68683C1772.6 2.70181 1763.91 0.247621 1755.12 0.704499L1571.73 10.2382C1562.1 10.7386 1552.98 14.6979 1546.04 21.3878L1431.33 131.98C1423.87 139.168 1413.92 143.184 1403.57 143.184H1314.46C1306.69 143.184 1299.09 140.921 1292.59 136.672L1197.87 74.7992C1191.36 70.5504 1183.76 68.2877 1175.99 68.2877H974.569C965.815 68.2877 957.302 71.1595 950.337 76.4626L809.794 183.471C802.829 188.774 794.316 191.646 785.562 191.646H604.699C596.544 191.646 588.583 189.153 581.885 184.502L462.878 101.866C456.179 97.2145 448.219 94.7217 440.063 94.7217H133.928C124.05 94.7217 114.521 98.3769 107.177 104.983Z" fill="#2A808D" fill-opacity="0.3"/>
<path d="M17.7221 85.4708H9.43359L12.9858 120.203L13.7752 147.832H23.2477L19.3008 120.203L17.7221 85.4708Z" fill="#216E7A"/>
<path d="M22.0986 152.568H15.4387C14.971 152.568 14.6058 152.972 14.6534 153.438L18.1167 187.301L18.8841 214.162C18.8963 214.589 19.246 214.929 19.6732 214.929H27.4684C27.9488 214.929 28.3178 214.503 28.2499 214.028L24.4317 187.301L22.8872 153.321C22.868 152.9 22.5206 152.568 22.0986 152.568Z" fill="#216E7A"/>
<path d="M38.2283 176.249L30.6313 176.249C30.1671 176.249 29.8031 176.648 29.8452 177.11L31.4821 195.078L31.4821 211.288C31.4821 211.757 31.8889 212.123 32.3554 212.073L40.45 211.208C40.9001 211.16 41.2176 210.744 41.1454 210.297L38.6515 194.871C38.6438 194.823 38.6405 194.776 38.6415 194.728L39.0175 177.055C39.0269 176.613 38.6709 176.249 38.2283 176.249Z" fill="#216E7A"/>
<path d="M27.2295 219.665H20.5695C20.1018 219.665 19.7367 220.069 19.7843 220.535L23.2408 254.332C23.2453 254.376 23.2461 254.42 23.2433 254.463L22.5123 265.793C22.483 266.248 22.8441 266.633 23.3001 266.633H30.9739C31.47 266.633 31.8431 266.181 31.7489 265.694L29.5735 254.454C29.5662 254.417 29.5617 254.378 29.5599 254.34L28.018 220.419C27.9989 219.997 27.6515 219.665 27.2295 219.665Z" fill="#216E7A"/>
<path d="M4.85499 234.18C9.44798 231.441 16.0304 222.265 16.5101 215.322C16.5402 214.887 16.1903 214.615 15.8258 214.854C12.9608 216.733 4.11039 226.507 3.87491 233.602C3.85733 234.132 4.39978 234.451 4.85499 234.18Z" fill="#216E7A"/>
<path d="M1.79121 207.966C3.48088 212.864 10.0165 213.676 14.5685 213.476C14.863 213.463 15.1489 213.277 15.1339 212.982C15.0156 210.67 7.46386 207.472 2.50141 207.076C2.00462 207.036 1.62869 207.495 1.79121 207.966Z" fill="#216E7A"/>
<path d="M27.4333 166.378C33.1603 165.148 42.8949 158.073 45.1926 151.422C45.335 151.01 45.0697 150.64 44.6476 150.749C41.1269 151.657 28.6661 158.681 26.6592 165.558C26.516 166.049 26.9336 166.486 27.4333 166.378Z" fill="#216E7A"/>
<path d="M106.489 187.537C103.035 192.268 92.6121 198.282 85.6015 197.675C85.1672 197.637 84.9371 197.245 85.2083 196.903C87.47 194.056 98.9569 185.532 106.055 186.496C106.562 186.565 106.791 187.124 106.489 187.537Z" fill="#216E7A"/>
<path d="M116.463 105.145C110.303 110.683 93.7228 115.748 84.7551 112.29C84.3483 112.134 84.2116 111.684 84.5408 111.398C88.0494 108.353 107.41 99.8288 116.303 104.01C116.757 104.223 116.836 104.81 116.463 105.145Z" fill="#216E7A"/>
<path d="M90.925 87.2624C91.3296 93.7412 86.7251 106.092 80.4667 110.077C80.099 110.311 79.6678 110.146 79.6557 109.711C79.5479 105.815 83.3415 90.3828 89.9445 86.7128C90.382 86.4697 90.8938 86.7629 90.925 87.2624Z" fill="#216E7A"/>
<path d="M102.619 130.392C99.6628 124.144 89.9034 115.321 83.2376 115.275C82.8017 115.272 82.5217 115.652 82.7201 116.04C84.5645 119.651 95.3553 131.849 102.098 131.345C102.569 131.31 102.821 130.819 102.619 130.392Z" fill="#216E7A"/>
<path d="M55.4233 84.3673L47.1484 83.892L48.703 118.771L47.9068 146.399L57.3637 146.942L55.0077 119.133L55.4233 84.3673Z" fill="#216E7A"/>
<path d="M79.6473 62.3393L71.4678 61L69.3608 95.8502L65.6754 123.243L75.0235 124.774L75.5929 96.8706L79.6473 62.3393Z" fill="#216E7A"/>
<path d="M89.0693 135.62L78.3818 133.623L75.5018 168.443L70.5853 195.65L82.7996 197.932L83.6447 169.964L89.0693 135.62Z" fill="#216E7A"/>
<path d="M55.9456 151.605L49.2966 151.223C48.8297 151.196 48.4419 151.579 48.4628 152.046L49.9784 186.052L49.2043 212.913C49.192 213.34 49.5216 213.7 49.948 213.724L57.7305 214.171C58.21 214.199 58.6028 213.795 58.5623 213.317L56.2831 186.414L56.6896 152.403C56.6947 151.981 56.3669 151.629 55.9456 151.605Z" fill="#216E7A"/>
<path d="M73.1236 129.262L66.5512 128.186C66.0896 128.11 65.6639 128.45 65.6357 128.917L63.5816 162.895L59.9984 189.527C59.9414 189.951 60.2316 190.342 60.6532 190.411L68.346 191.671C68.82 191.749 69.2529 191.388 69.2627 190.908L69.8136 163.915L73.7801 130.133C73.8293 129.714 73.5401 129.33 73.1236 129.262Z" fill="#216E7A"/>
<path d="M80.5413 202.332L71.4718 200.637C71.0023 200.549 70.5501 200.893 70.5109 201.367L67.7049 235.291L62.8536 263.966C62.7786 264.41 63.0923 264.814 63.5423 264.855L73.7061 265.767C74.165 265.809 74.5738 265.454 74.5942 264.998L75.8478 236.813L81.1566 203.201C81.2217 202.79 80.952 202.408 80.5413 202.332Z" fill="#216E7A"/>
<path d="M57.231 218.887L50.5698 218.504C50.1033 218.477 49.7157 218.859 49.7359 219.326L50.8729 245.657C50.8745 245.695 50.8734 245.734 50.8696 245.772L48.9824 264.266C48.938 264.701 49.2556 265.089 49.6908 265.132L59.8034 266.122C60.3088 266.171 60.7288 265.738 60.6631 265.234L58.0465 245.182L57.9752 219.673C57.974 219.255 57.6479 218.911 57.231 218.887Z" fill="#216E7A"/>
<path d="M35.3505 129.094C33.2679 135.277 39.7323 142.083 44.723 146.019C44.9489 146.198 45.2745 146.25 45.4645 146.033C47.3236 143.919 41.5234 133.66 36.4934 128.833C36.1202 128.475 35.5156 128.603 35.3505 129.094Z" fill="#216E7A"/>
<path d="M97.1347 218.119C91.1474 217.702 87.2301 209.609 85.3406 203.808C85.2524 203.537 85.3142 203.213 85.5842 203.123C88.0279 202.303 95.1189 210.994 97.7903 217.148C97.9989 217.629 97.6574 218.156 97.1347 218.119Z" fill="#216E7A"/>
<path d="M40.0906 215.291L32.4936 215.291C32.0294 215.291 31.6654 215.69 31.7075 216.152L33.3444 234.119L33.3444 265.36C33.3444 265.829 33.7512 266.195 34.2177 266.145L42.3732 265.274C42.7998 265.228 43.1119 264.85 43.0759 264.423L40.5023 233.841L40.8798 216.097C40.8892 215.655 40.5332 215.291 40.0906 215.291Z" fill="#216E7A"/>
<path d="M1082.51 334.5C1083.75 316.157 1067.42 288.994 1062.01 288C1062.01 288 1032.01 334.5 1018.01 362.5C1018.45 366.844 1020.27 369.142 1020.01 373.5C1019.74 378 1014.35 380.541 1016.51 384.5C1018.87 388.842 1029.01 386.5 1029.01 386.5C1043.01 384 1044.01 363.5 1045.51 363C1048.01 366.5 1050.65 377.5 1049.51 381.5C1048.51 385 1045.37 386.732 1046.51 390C1047.77 393.637 1051.51 395 1055.01 395C1063.51 395.5 1070.51 389 1075.01 383C1083.51 370 1083.51 347.5 1082.51 334.5Z" fill="#0A5D69"/>
<rect x="954" y="272" width="123" height="92" rx="46" fill="#F3F6F7"/>
<path d="M1001.42 362.5C1010.92 334.5 1004.92 286.5 982.424 276C974.089 276.336 961.424 284 961.424 284C961.424 284 932.449 318.921 929.424 346C929.924 356.5 935.925 373.5 933.924 388C931.424 390.39 930.924 391 929.424 393.5C927.424 397.5 932.924 400 936.924 400C941.924 400 948.3 398.159 953.424 393.5C960.053 387.473 959.424 379.5 961.424 372C964.924 376.5 964.424 393.5 961.924 397.5C958.424 403.5 958.924 405.5 961.424 408C968.424 411.833 981.924 408 987.924 400C996.424 386.5 997.14 378 1001.42 362.5Z" fill="#0A5D69"/>
<circle cx="927.5" cy="274.5" r="13.5" fill="#0A5D69"/>
<circle cx="968.5" cy="268.5" r="13.5" fill="#0A5D69"/>
<rect x="914" y="264" width="79" height="71" rx="35.5" fill="#F3F6F7"/>
<ellipse cx="968.63" cy="293.603" rx="8.85868" ry="11.6027" transform="rotate(-31.8762 968.63 293.603)" fill="#0A5D69"/>
<ellipse rx="8.85868" ry="11.6027" transform="matrix(-0.978754 -0.205037 -0.205037 0.978754 935.05 303.173)" fill="#0A5D69"/>
<path d="M947.5 312C948.233 315.72 955 317.5 956 317.5C956.999 317.5 963.484 311.889 961.5 308C959.5 304.5 947 307.5 947.5 312Z" fill="#0A5D69"/>
<ellipse cx="937.5" cy="301" rx="2.5" ry="3" fill="#F3F6F7"/>
<ellipse cx="964.5" cy="293" rx="2.5" ry="3" fill="#F3F6F7"/>
<path d="M1024.18 173H1013.68L1018.18 217L1019.18 252H1031.18L1026.18 217L1024.18 173Z" fill="#216E7A"/>
<path d="M1029.73 258H1021.29C1020.7 258 1020.24 258.512 1020.3 259.102L1024.68 302L1025.66 336.029C1025.67 336.57 1026.11 337 1026.66 337H1036.53C1037.14 337 1037.61 336.461 1037.52 335.859L1032.68 302L1030.73 258.955C1030.7 258.421 1030.26 258 1029.73 258Z" fill="#216E7A"/>
<path d="M1050.16 288L1040.54 288C1039.95 288 1039.49 288.505 1039.54 289.091L1041.62 311.852L1041.62 332.387C1041.62 332.982 1042.13 333.445 1042.72 333.382L1052.98 332.286C1053.55 332.225 1053.95 331.698 1053.86 331.132L1050.7 311.59C1050.69 311.53 1050.68 311.47 1050.69 311.409L1051.16 289.021C1051.17 288.461 1050.72 288 1050.16 288Z" fill="#216E7A"/>
<path d="M1036.23 343H1027.79C1027.2 343 1026.74 343.512 1026.8 344.102L1031.18 386.917C1031.18 386.972 1031.18 387.028 1031.18 387.083L1030.25 401.436C1030.22 402.012 1030.67 402.5 1031.25 402.5H1040.97C1041.6 402.5 1042.07 401.927 1041.95 401.31L1039.2 387.072C1039.19 387.024 1039.18 386.976 1039.18 386.927L1037.23 343.955C1037.2 343.421 1036.76 343 1036.23 343Z" fill="#216E7A"/>
<path d="M1007.88 361.387C1013.7 357.918 1022.04 346.294 1022.65 337.498C1022.69 336.947 1022.24 336.602 1021.78 336.905C1018.15 339.286 1006.94 351.667 1006.64 360.656C1006.62 361.327 1007.31 361.731 1007.88 361.387Z" fill="#216E7A"/>
<path d="M1004 328.18C1006.14 334.385 1014.42 335.413 1020.19 335.159C1020.56 335.143 1020.92 334.907 1020.9 334.534C1020.75 331.604 1011.19 327.553 1004.9 327.052C1004.27 327.001 1003.8 327.583 1004 328.18Z" fill="#216E7A"/>
<path d="M1036.49 275.495C1043.74 273.936 1056.07 264.974 1058.98 256.549C1059.16 256.027 1058.83 255.558 1058.29 255.696C1053.83 256.846 1038.05 265.745 1035.51 274.456C1035.32 275.078 1035.85 275.631 1036.49 275.495Z" fill="#216E7A"/>
<path d="M1136.64 302.3C1132.26 308.293 1119.06 315.912 1110.17 315.142C1109.62 315.095 1109.33 314.597 1109.68 314.165C1112.54 310.558 1127.09 299.759 1136.09 300.981C1136.73 301.068 1137.02 301.777 1136.64 302.3Z" fill="#216E7A"/>
<path d="M1149.27 197.924C1141.47 204.939 1120.46 211.355 1109.1 206.976C1108.59 206.777 1108.41 206.207 1108.83 205.845C1113.28 201.987 1137.8 191.189 1149.07 196.486C1149.64 196.756 1149.74 197.5 1149.27 197.924Z" fill="#216E7A"/>
<path d="M1116.92 175.27C1117.43 183.477 1111.6 199.124 1103.67 204.172C1103.2 204.469 1102.66 204.26 1102.64 203.708C1102.51 198.772 1107.31 179.223 1115.68 174.574C1116.23 174.265 1116.88 174.637 1116.92 175.27Z" fill="#216E7A"/>
<path d="M1131.73 229.907C1127.99 221.992 1115.62 210.814 1107.18 210.757C1106.63 210.753 1106.27 211.234 1106.52 211.726C1108.86 216.3 1122.53 231.753 1131.07 231.114C1131.67 231.07 1131.99 230.448 1131.73 229.907Z" fill="#216E7A"/>
<path d="M1071.94 171.602L1061.46 171L1063.43 215.186L1062.42 250.185L1074.4 250.874L1071.42 215.644L1071.94 171.602Z" fill="#216E7A"/>
<path d="M1102.63 143.697L1092.27 142L1089.6 186.149L1084.93 220.851L1096.77 222.79L1097.5 187.442L1102.63 143.697Z" fill="#216E7A"/>
<path d="M1114.57 236.529L1101.03 234L1097.38 278.111L1091.15 312.577L1106.62 315.468L1107.7 280.038L1114.57 236.529Z" fill="#216E7A"/>
<path d="M1072.61 256.78L1064.18 256.296C1063.59 256.262 1063.1 256.747 1063.13 257.339L1065.05 300.419L1064.07 334.447C1064.05 334.988 1064.47 335.443 1065.01 335.474L1074.87 336.04C1075.47 336.075 1075.97 335.564 1075.92 334.958L1073.03 300.877L1073.55 257.791C1073.55 257.256 1073.14 256.811 1072.61 256.78Z" fill="#216E7A"/>
<path d="M1094.37 228.476L1086.04 227.112C1085.46 227.017 1084.92 227.447 1084.88 228.039L1082.28 271.082L1077.74 304.821C1077.67 305.357 1078.04 305.853 1078.57 305.941L1088.32 307.537C1088.92 307.635 1089.46 307.179 1089.48 306.57L1090.17 272.375L1095.2 229.579C1095.26 229.048 1094.9 228.562 1094.37 228.476Z" fill="#216E7A"/>
<path d="M1103.77 321.042L1092.28 318.895C1091.68 318.784 1091.11 319.219 1091.06 319.819L1087.5 362.796L1081.36 399.121C1081.26 399.683 1081.66 400.196 1082.23 400.247L1095.11 401.403C1095.69 401.455 1096.21 401.007 1096.23 400.428L1097.82 364.723L1104.54 322.144C1104.63 321.622 1104.29 321.139 1103.77 321.042Z" fill="#216E7A"/>
<path d="M1074.24 342.014L1065.8 341.529C1065.21 341.495 1064.71 341.979 1064.74 342.571L1066.18 375.928C1066.18 375.976 1066.18 376.024 1066.18 376.072L1063.79 399.501C1063.73 400.052 1064.13 400.544 1064.68 400.598L1077.49 401.852C1078.13 401.915 1078.67 401.366 1078.58 400.728L1075.27 375.325L1075.18 343.009C1075.18 342.48 1074.76 342.044 1074.24 342.014Z" fill="#216E7A"/>
<path d="M1046.52 228.262C1043.88 236.096 1052.07 244.718 1058.39 249.704C1058.68 249.93 1059.09 249.996 1059.33 249.722C1061.68 247.043 1054.34 234.047 1047.96 227.932C1047.49 227.478 1046.72 227.641 1046.52 228.262Z" fill="#216E7A"/>
<path d="M1124.78 341.041C1117.2 340.513 1112.24 330.26 1109.84 322.912C1109.73 322.569 1109.81 322.158 1110.15 322.044C1113.25 321.005 1122.23 332.015 1125.62 339.812C1125.88 340.421 1125.45 341.088 1124.78 341.041Z" fill="#216E7A"/>
<path d="M1052.52 337.459L1042.9 337.459C1042.31 337.459 1041.85 337.964 1041.9 338.549L1043.98 361.311L1043.98 400.887C1043.98 401.482 1044.49 401.945 1045.08 401.882L1055.41 400.778C1055.95 400.72 1056.35 400.241 1056.3 399.7L1053.04 360.959L1053.52 338.48C1053.53 337.919 1053.08 337.459 1052.52 337.459Z" fill="#216E7A"/>
<circle cx="324.066" cy="174.214" r="65.0658" fill="#216E7A"/>
<circle cx="324.066" cy="129.066" r="65.0658" fill="#216E7A"/>
<rect x="313.474" y="175.974" width="15.1316" height="118.026" rx="7.56579" fill="#1D6874"/>
<circle cx="654.697" cy="199.712" r="44.6974" fill="#216E7A"/>
<circle cx="654.697" cy="168.697" r="44.6974" fill="#216E7A"/>
<rect x="647.421" y="200.921" width="10.3947" height="81.0789" rx="5.19737" fill="#1D6874"/>
</svg>
