<svg width="14" height="14" viewBox="0 0 14 14" fill="none" xmlns="http://www.w3.org/2000/svg">
<path d="M0 0.592529H13.2411V7.74048L12.5857 8.76454L13.2411 9.67595V13.8336H0V7.09532L0.409624 6.62425L0 6.17366V0.592529Z" fill="#016FD0"/>
<path d="M2.57031 9.81932V7.74048H4.77142L5.00758 8.04834L5.25154 7.74048H13.241V9.67595C13.241 9.67595 13.0321 9.81724 12.7904 9.81932H8.3665L8.10024 9.49162V9.81932H7.22774V9.25993C7.22774 9.25993 7.10856 9.33801 6.85089 9.33801H6.55391V9.81932H5.23287L4.99705 9.50486L4.75762 9.81932H2.57031Z" fill="white"/>
<path d="M0 6.17379L0.496359 5.0166H1.35476L1.63645 5.66481V5.0166H2.70352L2.87121 5.48511L3.03378 5.0166H7.82383V5.25214C7.82383 5.25214 8.07564 5.0166 8.48947 5.0166L10.0437 5.02203L10.3205 5.66176V5.0166H11.2135L11.4592 5.38407V5.0166H12.3604V7.09545H11.4592L11.2237 6.72678V7.09545H9.91172L9.77979 6.76775H9.42708L9.29729 7.09545H8.40754C8.05145 7.09545 7.82383 6.86472 7.82383 6.86472V7.09545H6.48231L6.21605 6.76775V7.09545H1.22759L1.09575 6.76775H0.744164L0.613248 7.09545H0L0 6.17379Z" fill="white"/>
<path fill-rule="evenodd" clip-rule="evenodd" d="M0.00292969 6.82928L0.67241 5.27271H1.17996L1.8488 6.82928H1.40333L1.28045 6.51758H0.562323L0.438796 6.82928H0.00292969ZM1.13911 6.17977L0.920217 5.63509L0.700684 6.17977H1.13911Z" fill="#016FD0"/>
<path d="M1.89453 6.82928V5.27271L2.51392 5.27501L2.87418 6.27859L3.22581 5.27271H3.84025V6.82928H3.4511V5.68233L3.0386 6.82928H2.69732L2.28367 5.68233V6.82928H1.89453Z" fill="#016FD0"/>
<path d="M4.10645 6.82928V5.27271H5.37628V5.62089H4.49968V5.88714H5.3558V6.21484H4.49968V6.49134H5.37628V6.82928H4.10645Z" fill="#016FD0"/>
<path fill-rule="evenodd" clip-rule="evenodd" d="M5.60156 6.82928V5.27271H6.46753C6.75447 5.27271 7.01157 5.45014 7.01157 5.7777C7.01157 6.05771 6.7948 6.23807 6.58466 6.2558L7.09669 6.82928H6.62114L6.15456 6.27628H5.99071V6.82928H5.60156ZM6.43539 5.62093H5.99056V5.94863H6.44115C6.51914 5.94863 6.61972 5.88819 6.61972 5.78478C6.61972 5.7044 6.54209 5.62093 6.43539 5.62093Z" fill="#016FD0"/>
<path d="M7.56823 6.82928H7.1709V5.27271H7.56823V6.82928Z" fill="#016FD0"/>
<path d="M8.50952 6.82928H8.42376C8.00879 6.82928 7.75684 6.50235 7.75684 6.05739C7.75684 5.60144 8.00596 5.27271 8.53 5.27271H8.96011V5.64137H8.51428C8.30155 5.64137 8.1511 5.80738 8.1511 6.06123C8.1511 6.36268 8.32313 6.48929 8.57096 6.48929H8.67337L8.50952 6.82928Z" fill="#016FD0"/>
<path fill-rule="evenodd" clip-rule="evenodd" d="M8.6875 6.82928L9.35698 5.27271H9.86453L10.5334 6.82928H10.0879L9.96502 6.51758H9.24689L9.12337 6.82928H8.6875ZM9.82368 6.17977L9.60479 5.63509L9.38525 6.17977H9.82368Z" fill="#016FD0"/>
<path d="M10.5781 6.82928V5.27271H11.0729L11.7046 6.25068V5.27271H12.0937V6.82928H11.615L10.9673 5.8257V6.82928H10.5781Z" fill="#016FD0"/>
<path d="M2.83691 9.55315V7.99658H4.10675V8.34476H3.23015V8.61102H4.08627V8.93872H3.23015V9.21521H4.10675V9.55315H2.83691Z" fill="#016FD0"/>
<path d="M9.05859 9.55315V7.99658H10.3284V8.34476H9.45183V8.61102H10.3039V8.93872H9.45183V9.21521H10.3284V9.55315H9.05859Z" fill="#016FD0"/>
<path d="M4.15535 9.55315L4.77362 8.78447L4.14062 7.99658H4.63089L5.00788 8.48365L5.38614 7.99658H5.85721L5.23253 8.77487L5.85195 9.55315H5.36175L4.99572 9.07376L4.63857 9.55315H4.15535Z" fill="#016FD0"/>
<path fill-rule="evenodd" clip-rule="evenodd" d="M5.89844 9.5534V7.99683H6.75801C7.11071 7.99683 7.31676 8.22415 7.31676 8.52038C7.31676 8.87797 7.05405 9.06185 6.70745 9.06185H6.29782V9.5534H5.89844ZM6.72924 8.34896H6.29785V8.70738H6.72796C6.84161 8.70738 6.92125 8.63206 6.92125 8.52817C6.92125 8.41759 6.84121 8.34896 6.72924 8.34896Z" fill="#016FD0"/>
<path fill-rule="evenodd" clip-rule="evenodd" d="M7.48633 9.55315V7.99658H8.3523C8.63924 7.99658 8.89633 8.17402 8.89633 8.50157C8.89633 8.78159 8.67957 8.96195 8.46943 8.97968L8.98146 9.55315H8.50591L8.03932 9.00016H7.87547V9.55315H7.48633ZM8.32032 8.34473H7.87549V8.67242H8.32608C8.40407 8.67242 8.50465 8.61199 8.50465 8.50858C8.50465 8.4282 8.42702 8.34473 8.32032 8.34473Z" fill="#016FD0"/>
<path d="M10.5094 9.55315V9.21521H11.2882C11.4034 9.21521 11.4533 9.15294 11.4533 9.08465C11.4533 9.01921 11.4036 8.95306 11.2882 8.95306H10.9362C10.6303 8.95306 10.46 8.76668 10.46 8.48685C10.46 8.23727 10.616 7.99658 11.0706 7.99658H11.8284L11.6645 8.34681H11.0091C10.8838 8.34681 10.8453 8.41255 10.8453 8.47533C10.8453 8.53986 10.8929 8.61102 10.9886 8.61102H11.3573C11.6983 8.61102 11.8463 8.80445 11.8463 9.05777C11.8463 9.3301 11.6814 9.55315 11.3387 9.55315H10.5094Z" fill="#016FD0"/>
<path d="M11.9371 9.55315V9.21521H12.7159C12.8311 9.21521 12.881 9.15294 12.881 9.08465C12.881 9.01921 12.8313 8.95306 12.7159 8.95306H12.364C12.0581 8.95306 11.8877 8.76668 11.8877 8.48685C11.8877 8.23727 12.0437 7.99658 12.4983 7.99658H13.2561L13.0922 8.34681H12.4368C12.3116 8.34681 12.273 8.41255 12.273 8.47533C12.273 8.53986 12.3207 8.61102 12.4164 8.61102H12.785C13.126 8.61102 13.274 8.80445 13.274 9.05777C13.274 9.3301 13.1091 9.55315 12.7665 9.55315H11.9371Z" fill="#016FD0"/>
</svg>
