<svg width="24" height="24" viewBox="0 0 24 24" fill="none" xmlns="http://www.w3.org/2000/svg">
<path fill-rule="evenodd" clip-rule="evenodd" d="M20.3329 3.8501C21.2867 3.8501 22.0679 4.60454 22.1436 5.56166L22.1496 5.71438V18.2858C22.1496 19.2627 21.4161 20.066 20.482 20.1439L20.3329 20.1501H3.66628C2.71253 20.1501 1.93136 19.3957 1.85563 18.4385L1.84961 18.2858V5.71438C1.84961 4.73746 2.58309 3.93417 3.5172 3.85629L3.66628 3.8501H20.3329ZM20.7376 11.0071H3.26061L3.26072 18.2858C3.26072 18.4891 3.40144 18.6593 3.58518 18.6987L3.66628 18.7072H20.3329C20.527 18.7072 20.692 18.5625 20.7302 18.3706L20.7385 18.2858L20.7376 11.0071ZM8.24961 15.2787C8.53128 15.2787 8.76494 15.49 8.80886 15.7639L8.81628 15.8572V16.143C8.81628 16.4288 8.61078 16.6688 8.34153 16.7139L8.24961 16.7215H5.74961C5.46794 16.7215 5.23427 16.5102 5.19036 16.2363L5.18294 16.143V15.8572C5.18294 15.5714 5.38844 15.3314 5.65769 15.2863L5.74961 15.2787H8.24961ZM14.9163 15.2787C15.1979 15.2787 15.4316 15.49 15.4755 15.7639L15.4829 15.8572V16.143C15.4829 16.4288 15.2774 16.6688 15.0082 16.7139L14.9163 16.7215H10.1941C9.91238 16.7215 9.67872 16.5102 9.6348 16.2363L9.62739 16.143V15.8572C9.62739 15.5714 9.83288 15.3314 10.1021 15.2863L10.1941 15.2787H14.9163ZM20.3329 5.29295H3.66628C3.47224 5.29295 3.30726 5.4377 3.26905 5.62956L3.26072 5.71438L3.26061 7.2781H20.7376L20.7385 5.71438C20.7385 5.51106 20.5978 5.3409 20.414 5.30153L20.3329 5.29295Z" fill="#2A8088"/>
</svg>
