<?xml version="1.0" encoding="utf-8"?>
<!-- Svg Vector Icons : http://www.onlinewebfonts.com/icon -->
<!DOCTYPE svg PUBLIC "-//W3C//DTD SVG 1.1//EN" "http://www.w3.org/Graphics/SVG/1.1/DTD/svg11.dtd">
<svg version="1.1" xmlns="http://www.w3.org/2000/svg" xmlns:xlink="http://www.w3.org/1999/xlink" x="0px" y="0px" viewBox="0 0 1000 1000" enable-background="new 0 0 1000 1000" xml:space="preserve">
<metadata> Svg Vector Icons : http://www.onlinewebfonts.com/icon </metadata>
<g><g transform="translate(0.000000,512.000000) scale(0.100000,-0.100000)"><path d="M4625.6,5015.6c-1263.8-130.4-2270.7-600.3-3110.7-1448C742,2785.2,285.5,1851.2,124.4,721.6c-32.6-226.3-32.6-981.9,0-1208.2c95.9-673.1,299.2-1283,602.2-1812.3c237.8-410.4,452.6-694.3,788.2-1033.7c780.6-788.2,1735.6-1261.9,2880.6-1424.9c222.5-32.6,980-30.7,1208.2,0c548.5,76.7,1054.8,228.2,1513.2,450.7c529.3,257,882.2,504.4,1294.5,905.2c444.9,433.4,717.3,807.4,991.5,1361.7c237.8,481.4,375.9,926.3,462.2,1486.3c49.9,333.7,46,1031.8-9.6,1390.4c-84.4,537-226.3,981.9-466,1465.2C8906.2,3276.2,8139,4039.5,7157.1,4520.8c-483.3,235.9-932.1,375.9-1467.1,458.4C5496.3,5008,4790.5,5032.9,4625.6,5015.6z M4362.8,2225.2c184.1-57.5,393.2-170.7,569.6-310.7l151.5-120.8l159.2,120.8c182.2,138.1,460.3,280,638.6,326c163,42.2,464.1,40.3,642.5-3.8c186-44.1,456.4-180.3,600.3-299.2c243.6-201.4,458.4-546.6,542.7-870.7c61.4-237.8,69.1-552.3,19.2-765.2c-182.2-759.5-1029.9-1693.5-2403-2644.7c-159.2-109.3-193.7-126.6-226.3-109.3c-65.2,34.5-481.4,326-678.9,475.6C3354.1-1201.9,2663.6-396.5,2496.8,223c-130.4,483.3,21.1,1102.7,364.4,1501.7C3254.3,2181.1,3852.7,2380.6,4362.8,2225.2z" fill="#2A8086"/><path d="M3733.8,1855.1c-546.6-140-880.3-598.4-886-1219.7c-3.8-237.8,28.8-379.7,140-600.3c268.5-538.9,870.7-1152.6,1779.7-1812.3c347.1-253.2,291.5-243.6,533.1-74.8c444.9,312.6,899.5,698.1,1242.8,1051C7122.6-204.7,7373.8,292,7329.7,746.6c-47.9,477.5-257,832.3-594.5,1003c-195.6,99.7-295.4,122.7-546.6,122.7c-195.6,0-234-5.7-341.4-49.9c-195.6-84.4-322.2-168.8-548.5-374L5084,1254.8l-170.7,161.1c-216.7,201.4-370.1,314.5-537,393.2c-118.9,53.7-153.4,61.4-333.7,67.1C3912.1,1878.1,3800.9,1870.4,3733.8,1855.1z" fill="#2A8086"/></g></g>
</svg>