<svg width="20" height="15" viewBox="0 0 20 15" fill="none" xmlns="http://www.w3.org/2000/svg">
<rect x="7.61914" y="1.99731" width="4.91307" height="8.83058" fill="#6C6BBD"/>
<path d="M7.92731 6.41254C7.92731 4.62054 8.76358 3.02765 10.0727 1.99725C9.117 1.24561 7.91238 0.797607 6.60322 0.797607C3.50206 0.797607 0.988281 3.31138 0.988281 6.41254C0.988281 9.5137 3.50206 12.0275 6.60322 12.0275C7.91238 12.0275 9.117 11.5795 10.0727 10.8278C8.76856 9.79743 7.92731 8.20454 7.92731 6.41254Z" fill="#D32011"/>
<path d="M19.1567 6.41254C19.1567 9.5137 16.6429 12.0275 13.5418 12.0275C12.2326 12.0275 11.028 11.5795 10.0723 10.8278C11.3764 9.79743 12.2177 8.20454 12.2177 6.41254C12.2177 4.62054 11.3814 3.02765 10.0723 1.99725C11.028 1.24561 12.2326 0.797607 13.5418 0.797607C16.6429 0.797607 19.1567 3.31138 19.1567 6.41254Z" fill="#0099DF"/>
<path fill-rule="evenodd" clip-rule="evenodd" d="M12.4622 13.6551H12.9948V13.3514H12.4671V12.8984H12.1386V13.3514H11.835V13.6501H12.1386V14.332C12.1386 14.6805 12.273 14.8846 12.6563 14.8846C12.7957 14.8846 12.955 14.8398 13.0595 14.7701L12.9649 14.4913C12.8654 14.5461 12.7608 14.576 12.6762 14.576C12.5169 14.576 12.4622 14.4764 12.4622 14.3271V13.6551ZM14.4184 13.3614C14.3487 13.3365 14.2542 13.3216 14.1895 13.3216C14.0053 13.3216 13.8808 13.4062 13.7962 13.5357V13.3565H13.4727V14.8448H13.7962V14.0085C13.7962 13.7646 13.9007 13.6253 14.1148 13.6253C14.1795 13.6253 14.2492 13.6352 14.3189 13.6651L14.4184 13.3614ZM8.8431 13.9736C8.87794 13.7595 9.00737 13.6102 9.24132 13.6102C9.45039 13.6102 9.58479 13.7396 9.61964 13.9736H8.8431ZM9.24625 13.3216C9.66438 13.3216 9.94812 13.6402 9.95309 14.1031C9.95309 14.1262 9.95178 14.1479 9.9505 14.169C9.94929 14.1889 9.94812 14.2082 9.94812 14.2276H8.84305C8.89283 14.4964 9.08198 14.5909 9.29105 14.5909C9.44038 14.5909 9.59967 14.5362 9.72412 14.4366L9.88341 14.6756C9.69923 14.8299 9.49514 14.8846 9.27114 14.8846C8.82314 14.8846 8.50456 14.576 8.50456 14.1031C8.50456 13.6402 8.8082 13.3216 9.24625 13.3216ZM11.377 13.7397C11.2874 13.685 11.1032 13.6103 10.9141 13.6103C10.7349 13.6103 10.6303 13.675 10.6303 13.7845C10.6303 13.8841 10.7448 13.914 10.8842 13.9289L11.0385 13.9488C11.3621 13.9936 11.5612 14.133 11.5612 14.3968C11.5612 14.6805 11.3123 14.8846 10.8792 14.8846C10.6353 14.8846 10.4113 14.8199 10.2321 14.6905L10.3864 14.4366C10.4959 14.5213 10.6602 14.5909 10.8842 14.5909C11.1032 14.5909 11.2227 14.5262 11.2227 14.4117C11.2227 14.3271 11.1381 14.2823 10.9589 14.2574L10.8045 14.2375C10.471 14.1927 10.2918 14.0384 10.2918 13.7995C10.2918 13.5008 10.5357 13.3216 10.9141 13.3216C11.153 13.3216 11.367 13.3764 11.5213 13.4759L11.377 13.7397ZM15.1949 13.6651C15.2496 13.6402 15.3143 13.6302 15.379 13.6302C15.4438 13.6302 15.5035 13.6402 15.5632 13.6651C15.623 13.6899 15.6727 13.7248 15.7126 13.7646C15.7574 13.8044 15.7872 13.8542 15.8121 13.9139C15.837 13.9737 15.847 14.0384 15.847 14.1081C15.847 14.1778 15.837 14.2425 15.8121 14.3022C15.7872 14.357 15.7574 14.4117 15.7126 14.4515C15.6727 14.4963 15.623 14.5262 15.5632 14.5511C15.5085 14.576 15.4438 14.5859 15.379 14.5859C15.3143 14.5859 15.2546 14.576 15.1949 14.5511C15.1351 14.5262 15.0854 14.4914 15.0455 14.4515C15.0007 14.4117 14.9709 14.3619 14.946 14.3022C14.9211 14.2425 14.9111 14.1778 14.9111 14.1081C14.9111 14.0384 14.9211 13.9737 14.946 13.9139C14.9709 13.8592 15.0057 13.8044 15.0455 13.7646C15.0903 13.7198 15.1401 13.6899 15.1949 13.6651ZM15.379 13.3216C15.4935 13.3216 15.603 13.3415 15.7025 13.3813C15.8021 13.4212 15.8867 13.4759 15.9564 13.5456C16.0261 13.6153 16.0858 13.6999 16.1257 13.7945C16.1655 13.8891 16.1854 13.9936 16.1854 14.1081C16.1854 14.2226 16.1655 14.3271 16.1257 14.4217C16.0858 14.5163 16.0311 14.6009 15.9564 14.6706C15.8867 14.7403 15.7971 14.795 15.7025 14.8349C15.603 14.8747 15.4985 14.8946 15.379 14.8946C15.2645 14.8946 15.155 14.8747 15.0554 14.8349C14.9559 14.795 14.8713 14.7403 14.8016 14.6706C14.7319 14.6009 14.6721 14.5163 14.6323 14.4217C14.5925 14.3271 14.5726 14.2226 14.5726 14.1081C14.5726 13.9936 14.5925 13.8891 14.6323 13.7945C14.6721 13.6999 14.7269 13.6153 14.8016 13.5456C14.8713 13.4759 14.9559 13.4212 15.0554 13.3813C15.155 13.3415 15.2595 13.3216 15.379 13.3216ZM7.39959 13.6252C7.11586 13.6252 6.94661 13.8392 6.94661 14.103C6.94661 14.3669 7.11586 14.5809 7.39959 14.5809C7.66839 14.5809 7.84758 14.3768 7.84758 14.103C7.84758 13.8293 7.66839 13.6252 7.39959 13.6252ZM8.15119 14.1031V13.3564H7.82764V13.5356C7.7231 13.4012 7.56879 13.3166 7.35474 13.3166C6.93661 13.3166 6.60807 13.6451 6.60807 14.0981C6.60807 14.5511 6.93661 14.8796 7.35474 14.8796C7.56879 14.8796 7.7231 14.795 7.82764 14.6606V14.8398H8.15119V14.1031ZM6.3244 13.9139V14.8448H5.99587V14.0135C5.99587 13.7596 5.89134 13.6202 5.66734 13.6202C5.45329 13.6202 5.30396 13.7596 5.30396 14.0185V14.8448H4.97543V14.0135C4.97543 13.7596 4.86592 13.6202 4.65187 13.6202C4.43285 13.6202 4.28849 13.7596 4.28849 14.0185V14.8448H3.95996V13.3564H4.28352V13.5406C4.40796 13.3664 4.56227 13.3216 4.72156 13.3216C4.95054 13.3216 5.10983 13.4211 5.21436 13.5854C5.34876 13.3763 5.54787 13.3166 5.73702 13.3216C6.1004 13.3265 6.3244 13.5605 6.3244 13.9139Z" fill="#110F0D"/>
</svg>
