<svg width="23" height="15" viewBox="0 0 23 15" fill="none" xmlns="http://www.w3.org/2000/svg">
<g opacity="0.01">
<rect x="0.295898" width="21.9259" height="14.8148" fill="white"/>
</g>
<rect x="8.32129" y="2.51196" width="5.75099" height="9.39307" fill="#FF5F00"/>
<path d="M8.91408 7.20941C8.91264 5.37676 9.75393 3.64522 11.1956 2.51371C8.74646 0.588978 5.22945 0.869332 3.11619 3.15775C1.00294 5.44616 1.00294 8.97433 3.11619 11.2627C5.22945 13.5512 8.74646 13.8315 11.1956 11.9068C9.75347 10.7749 8.91213 9.04265 8.91408 7.20941Z" fill="#EB001B"/>
<path fill-rule="evenodd" clip-rule="evenodd" d="M20.2903 10.7188V10.9113H20.2538V10.7188H20.1758V10.679H20.3732V10.7188H20.2903ZM20.6736 10.679V10.9113H20.6321V10.7355L20.5674 10.8864H20.5226L20.4579 10.7355V10.9113H20.4147V10.679H20.4744L20.5441 10.845L20.6138 10.679H20.6736Z" fill="#F79E1B"/>
<path d="M20.8605 7.20952C20.8604 9.49654 19.5546 11.5828 17.4975 12.5822C15.4404 13.5816 12.9932 13.3187 11.1953 11.9052C12.6363 10.7728 13.4777 9.04144 13.4777 7.20869C13.4777 5.37594 12.6363 3.64463 11.1953 2.51216C12.9932 1.09865 15.4404 0.835787 17.4975 1.8352C19.5546 2.83461 20.8604 4.92084 20.8605 7.20786V7.20952Z" fill="#F79E1B"/>
</svg>
