<svg width="13" height="16" viewBox="0 0 13 16" fill="none" xmlns="http://www.w3.org/2000/svg">
<rect y="6.19995" width="13" height="9.1" rx="1.3" fill="#2A8088"/>
<path d="M2.59961 6.19976C2.59961 -0.733554 10.3996 -0.733548 10.3996 6.19976" stroke="#2A8088"/>
<path d="M4.25394 9.74625C4.05868 9.55099 3.7421 9.55099 3.54684 9.74625C3.35158 9.94151 3.35158 10.2581 3.54684 10.4534L4.25394 9.74625ZM6.50039 12.6998L6.14684 13.0534L6.50039 13.4069L6.85394 13.0534L6.50039 12.6998ZM10.7539 9.15336C10.9492 8.9581 10.9492 8.64151 10.7539 8.44625C10.5587 8.25099 10.2421 8.25099 10.0468 8.44625L10.7539 9.15336ZM3.54684 10.4534L6.14684 13.0534L6.85394 12.3463L4.25394 9.74625L3.54684 10.4534ZM6.85394 13.0534L10.7539 9.15336L10.0468 8.44625L6.14684 12.3463L6.85394 13.0534Z" fill="white"/>
</svg>
