<svg width="34" height="12" viewBox="0 0 34 12" fill="none" xmlns="http://www.w3.org/2000/svg">
<path d="M14.7509 11.3634H12.0625L13.744 0.966309H16.4322L14.7509 11.3634Z" fill="#00579F"/>
<path d="M24.497 1.22048C23.9667 1.01011 23.1257 0.777832 22.0857 0.777832C19.4309 0.777832 17.5614 2.19353 17.5499 4.21755C17.5278 5.71087 18.8884 6.5403 19.906 7.03822C20.9461 7.54702 21.2996 7.87911 21.2996 8.33263C21.2891 9.02916 20.4592 9.35023 19.6852 9.35023C18.6119 9.35023 18.0368 9.1847 17.1628 8.79718L16.8088 8.63106L16.4326 10.965C17.0631 11.2522 18.2248 11.5071 19.4309 11.5183C22.2517 11.5183 24.0881 10.1245 24.1099 7.96761C24.1206 6.78404 23.4022 5.87714 21.8533 5.13607C20.913 4.66034 20.3372 4.33957 20.3372 3.85282C20.3482 3.41033 20.8242 2.9571 21.8856 2.9571C22.7596 2.9349 23.4017 3.14497 23.8882 3.3552L24.1313 3.4656L24.497 1.22048Z" fill="#00579F"/>
<path fill-rule="evenodd" clip-rule="evenodd" d="M29.3085 0.966309H31.3879L33.5567 11.3632H31.0676C31.0676 11.3632 30.824 10.1686 30.7468 9.80362H27.2952C27.1954 10.08 26.731 11.3632 26.731 11.3632H23.9102L27.9034 1.82896C28.18 1.15419 28.6672 0.966309 29.3085 0.966309ZM29.1425 4.77112C29.1425 4.77112 28.2906 7.08283 28.0692 7.68013H30.3037C30.1932 7.16031 29.6841 4.67159 29.6841 4.67159L29.4962 3.77572C29.4171 4.00641 29.3027 4.32356 29.2255 4.53749C29.1732 4.68251 29.138 4.78008 29.1425 4.77112Z" fill="#00579F"/>
<path d="M9.817 0.966309L7.18422 8.05612L6.89652 6.61822C6.40977 4.95908 4.88323 3.15645 3.17969 2.26014L5.59123 11.3524H8.43409L12.6597 0.966309H9.817V0.966309Z" fill="#00579F"/>
<path d="M4.73967 0.966309H0.414367L0.370117 1.17638C3.74412 2.03918 5.97866 4.11892 6.89673 6.61866L5.95646 1.84028C5.80166 1.17624 5.32594 0.988213 4.73967 0.966309Z" fill="#FAA61A"/>
</svg>
